<svg width="19" height="19" viewBox="0 0 19 19" fill="none" xmlns="http://www.w3.org/2000/svg">
<path fill-rule="evenodd" clip-rule="evenodd" d="M17.0987 6.50627L9.9737 0.970892C9.65703 0.733661 9.2612 0.733661 9.0237 0.970892L1.8987 6.50627C1.6612 6.66442 1.58203 6.90165 1.58203 7.13888V15.8373C1.58203 17.1816 2.6112 18.2096 3.95703 18.2096H15.0404C16.3862 18.2096 17.4154 17.1816 17.4154 15.8373V7.13888C17.4154 6.90165 17.3362 6.66442 17.0987 6.50627ZM11.0817 16.6269H7.91504V10.3008H11.0817V16.6269ZM15.04 16.6294C15.515 16.6294 15.8317 16.3131 15.8317 15.8386V7.53557L9.49837 2.63281L3.16504 7.53557V15.8386C3.16504 16.3131 3.48171 16.6294 3.95671 16.6294H6.33171V9.51249C6.33171 9.03803 6.64837 8.72173 7.12337 8.72173H11.8734C12.3484 8.72173 12.665 9.03803 12.665 9.51249V16.6294H15.04Z" fill="#6C7BFF"/>
<mask id="mask0_92_1436" style="mask-type:alpha" maskUnits="userSpaceOnUse" x="1" y="0" width="17" height="19">
<path fill-rule="evenodd" clip-rule="evenodd" d="M17.0987 6.50627L9.9737 0.970892C9.65703 0.733661 9.2612 0.733661 9.0237 0.970892L1.8987 6.50627C1.6612 6.66442 1.58203 6.90165 1.58203 7.13888V15.8373C1.58203 17.1816 2.6112 18.2096 3.95703 18.2096H15.0404C16.3862 18.2096 17.4154 17.1816 17.4154 15.8373V7.13888C17.4154 6.90165 17.3362 6.66442 17.0987 6.50627ZM11.0817 16.6269H7.91504V10.3008H11.0817V16.6269ZM15.04 16.6294C15.515 16.6294 15.8317 16.3131 15.8317 15.8386V7.53557L9.49837 2.63281L3.16504 7.53557V15.8386C3.16504 16.3131 3.48171 16.6294 3.95671 16.6294H6.33171V9.51249C6.33171 9.03803 6.64837 8.72173 7.12337 8.72173H11.8734C12.3484 8.72173 12.665 9.03803 12.665 9.51249V16.6294H15.04Z" fill="white"/>
</mask>
<g mask="url(#mask0_92_1436)">
<rect width="19" height="19" fill="#6C7BFF"/>
</g>
</svg>
