<svg width="22" height="22" viewBox="0 0 22 22" fill="none" xmlns="http://www.w3.org/2000/svg">
<path d="M18.768 4.02344H2.68047C2.32491 4.02344 1.98392 4.16468 1.7325 4.4161C1.48109 4.66751 1.33984 5.00851 1.33984 5.36406V16.0891C1.33984 16.4446 1.48109 16.7856 1.7325 17.037C1.98392 17.2884 2.32491 17.4297 2.68047 17.4297H18.768C19.1235 17.4297 19.4645 17.2884 19.7159 17.037C19.9673 16.7856 20.1086 16.4446 20.1086 16.0891V5.36406C20.1086 5.00851 19.9673 4.66751 19.7159 4.4161C19.4645 4.16468 19.1235 4.02344 18.768 4.02344ZM17.2933 5.36406L10.7242 9.90878L4.15516 5.36406H17.2933ZM2.68047 16.0891V5.97405L10.3421 11.2762C10.4543 11.3541 10.5877 11.3958 10.7242 11.3958C10.8608 11.3958 10.9941 11.3541 11.1063 11.2762L18.768 5.97405V16.0891H2.68047Z" fill="#7B7F90"/>
</svg>
