<svg width="18" height="18" viewBox="0 0 18 18" fill="none" xmlns="http://www.w3.org/2000/svg">
<path d="M17.7623 11.2879L16.3723 10.1629C16.4381 9.78115 16.4721 9.39139 16.4721 9.00163C16.4721 8.61187 16.4381 8.22211 16.3723 7.84039L17.7623 6.71531C17.8672 6.63034 17.9422 6.51717 17.9775 6.39084C18.0127 6.26452 18.0065 6.13103 17.9597 6.00812L17.9406 5.95588C17.5579 4.94336 16.9849 4.00475 16.2492 3.18538L16.211 3.14319C16.1218 3.04384 16.0028 2.97243 15.8699 2.93836C15.7369 2.90429 15.5961 2.90916 15.4662 2.95233L13.7409 3.53295C13.1042 3.03872 12.3933 2.64896 11.6251 2.37572L11.2919 0.668015C11.2668 0.53952 11.2009 0.421306 11.1031 0.329081C11.0053 0.236855 10.8802 0.174983 10.7444 0.151685L10.6871 0.141639C9.58147 -0.0472131 8.41853 -0.0472131 7.3129 0.141639L7.2556 0.151685C7.11978 0.174983 6.99466 0.236855 6.89686 0.329081C6.79907 0.421306 6.73323 0.53952 6.70809 0.668015L6.37279 2.38376C5.61071 2.65705 4.90102 3.0466 4.27187 3.53696L2.53384 2.95233C2.40389 2.90881 2.26304 2.90377 2.12999 2.93786C1.99694 2.97195 1.878 3.04357 1.78897 3.14319L1.75077 3.18538C1.01597 4.00533 0.443056 4.94379 0.0594242 5.95588L0.0403249 6.00812C-0.0551714 6.25925 0.0233479 6.54052 0.237684 6.71531L1.64466 7.85244C1.57888 8.23015 1.54704 8.61589 1.54704 8.99962C1.54704 9.38536 1.57888 9.7711 1.64466 10.1468L0.237684 11.2839C0.132841 11.3689 0.0578039 11.4821 0.0225499 11.6084C-0.0127041 11.7347 -0.00650436 11.8682 0.0403249 11.9911L0.0594242 12.0434C0.443532 13.0559 1.01227 13.9901 1.75077 14.8139L1.78897 14.8561C1.87821 14.9554 1.99716 15.0268 2.13013 15.0609C2.2631 15.095 2.40385 15.0901 2.53384 15.0469L4.27187 14.4623C4.90427 14.9545 5.61094 15.3443 6.37279 15.6155L6.70809 17.3312C6.73323 17.4597 6.79907 17.5779 6.89686 17.6702C6.99466 17.7624 7.11978 17.8243 7.2556 17.8476L7.3129 17.8576C8.42869 18.0475 9.57131 18.0475 10.6871 17.8576L10.7444 17.8476C10.8802 17.8243 11.0053 17.7624 11.1031 17.6702C11.2009 17.5779 11.2668 17.4597 11.2919 17.3312L11.6251 15.6235C12.393 15.351 13.1079 14.96 13.7409 14.4663L15.4662 15.0469C15.5961 15.0904 15.737 15.0955 15.87 15.0614C16.0031 15.0273 16.122 14.9557 16.211 14.8561L16.2492 14.8139C16.9877 13.9881 17.5565 13.0559 17.9406 12.0434L17.9597 11.9911C18.0552 11.744 17.9767 11.4627 17.7623 11.2879ZM14.8656 8.07746C14.9186 8.38083 14.9462 8.69223 14.9462 9.00364C14.9462 9.31504 14.9186 9.62645 14.8656 9.92982L14.7255 10.7355L16.3108 12.0192C16.0705 12.5434 15.7671 13.0396 15.4067 13.4979L13.4374 12.8369L12.771 13.3553C12.2639 13.7491 11.6994 14.0585 11.0882 14.2754L10.2797 14.5627L9.89979 16.5115C9.30043 16.5758 8.69532 16.5758 8.09597 16.5115L7.71611 14.5587L6.91394 14.2674C6.30913 14.0504 5.74676 13.741 5.24381 13.3493L4.57746 12.8289L2.59538 13.4959C2.23462 13.0358 1.93327 12.5396 1.69135 12.0172L3.29357 10.7214L3.15563 9.91776C3.1047 9.61841 3.07711 9.30902 3.07711 9.00364C3.07711 8.69625 3.10257 8.38886 3.15563 8.08951L3.29357 7.28589L1.69135 5.99004C1.93115 5.46567 2.23462 4.97144 2.59538 4.51136L4.57746 5.17837L5.24381 4.65802C5.74676 4.26626 6.30913 3.95686 6.91394 3.73988L7.71823 3.45258L8.09809 1.49977C8.69441 1.43548 9.30347 1.43548 9.90191 1.49977L10.2818 3.44857L11.0903 3.73586C11.6994 3.95284 12.266 4.26224 12.7732 4.65602L13.4395 5.17435L15.4089 4.51337C15.7696 4.97345 16.071 5.46969 16.3129 5.99205L14.7277 7.27584L14.8656 8.07746ZM9.00212 5.26677C6.9394 5.26677 5.26716 6.84992 5.26716 8.80273C5.26716 10.7555 6.9394 12.3387 9.00212 12.3387C11.0648 12.3387 12.7371 10.7555 12.7371 8.80273C12.7371 6.84992 11.0648 5.26677 9.00212 5.26677ZM10.6829 10.3939C10.4624 10.6032 10.2004 10.7692 9.91199 10.8823C9.62354 10.9954 9.31433 11.0533 9.00212 11.0529C8.3676 11.0529 7.77128 10.8178 7.32139 10.3939C7.10031 10.1852 6.925 9.93719 6.80554 9.66412C6.68609 9.39104 6.62484 9.0983 6.62533 8.80273C6.62533 8.20202 6.87362 7.63747 7.32139 7.21155C7.77128 6.78563 8.3676 6.55258 9.00212 6.55258C9.63664 6.55258 10.233 6.78563 10.6829 7.21155C10.9039 7.42025 11.0792 7.66827 11.1987 7.94135C11.3182 8.21442 11.3794 8.50716 11.3789 8.80273C11.3789 9.40344 11.1306 9.96799 10.6829 10.3939Z" fill="#7B7F90"/>
</svg>
