<svg width="19" height="16" viewBox="0 0 19 16" fill="none" xmlns="http://www.w3.org/2000/svg">
<path d="M18.483 11.5338C18.483 10.4522 18.1591 9.40791 17.5463 8.51368C17.1055 7.8705 16.5379 7.33637 15.8801 6.93946C16.6545 6.20606 17.1391 5.16947 17.1391 4.02119C17.1391 1.80392 15.3351 0 13.1179 0C11.8032 0 10.5716 0.650234 9.82348 1.71763C9.63338 1.68994 9.43917 1.67501 9.24148 1.67501C9.04379 1.67501 8.84962 1.68999 8.65952 1.71763C7.91138 0.650234 6.67979 0 5.36508 0C3.14781 0 1.34389 1.80392 1.34389 4.02119C1.34389 5.16947 1.82844 6.20606 2.60292 6.93946C1.9451 7.33632 1.37748 7.8705 0.936746 8.51363C0.323926 9.4079 0 10.4522 0 11.5338V13.7704H3.87645V15.4454H14.6066V13.7704H18.483V11.5338H18.483ZM13.1179 0.992471C14.788 0.992471 16.1466 2.35115 16.1466 4.02124C16.1466 5.69134 14.788 7.05001 13.1179 7.05001C13.088 7.05001 13.0581 7.04956 13.0281 7.04867C13.0304 7.04232 13.0323 7.03582 13.0345 7.02947C13.0862 6.88289 13.1293 6.73234 13.1639 6.57856C13.1664 6.56765 13.1691 6.55683 13.1715 6.54586C13.1804 6.50438 13.1883 6.4625 13.196 6.42052C13.1996 6.40067 13.2034 6.38087 13.2067 6.36097C13.2129 6.32351 13.2186 6.2859 13.2238 6.24813C13.2274 6.22189 13.2307 6.19564 13.2338 6.16934C13.2378 6.13599 13.2416 6.1026 13.2447 6.069C13.2479 6.03471 13.2503 6.00038 13.2525 5.96599C13.2543 5.9389 13.2566 5.9119 13.2578 5.88466C13.2605 5.82626 13.2621 5.76775 13.2623 5.7092C13.2623 5.70488 13.2626 5.70067 13.2626 5.6963C13.2626 5.69397 13.2624 5.69163 13.2624 5.6893C13.2623 5.62951 13.2606 5.57006 13.2579 5.51082C13.2571 5.4936 13.2561 5.47643 13.2551 5.45926C13.2521 5.40889 13.2483 5.35878 13.2436 5.30891C13.2425 5.29759 13.2416 5.28628 13.2405 5.27502C13.0905 3.82563 12.1749 2.58506 10.854 2.01124C11.4232 1.37177 12.2465 0.992471 13.1179 0.992471ZM8.19353 2.85435C8.2032 2.85083 8.21298 2.8475 8.22266 2.84403C8.25278 2.83326 8.28314 2.82304 8.31366 2.81317C8.33678 2.80577 8.36006 2.79863 8.38348 2.79178C8.4005 2.78677 8.41757 2.78195 8.43469 2.77719C8.46525 2.76881 8.49597 2.76062 8.52698 2.75313C8.75623 2.69745 8.99531 2.66723 9.24138 2.66723C9.48765 2.66743 9.72682 2.6977 9.95612 2.75337C9.98693 2.76082 10.0175 2.76895 10.0479 2.77729C10.0652 2.7821 10.0826 2.78697 10.0998 2.79208C10.1229 2.79888 10.146 2.80592 10.1688 2.81322C10.1998 2.82319 10.2305 2.83351 10.2609 2.84443C10.2703 2.84775 10.2797 2.85093 10.289 2.85435C11.3019 3.22894 12.0614 4.13041 12.2333 5.2244C12.2346 5.23314 12.2359 5.24192 12.2372 5.2507C12.2427 5.28777 12.2473 5.32513 12.2514 5.3626C12.2529 5.37639 12.2545 5.39014 12.2559 5.40398C12.2591 5.43817 12.2616 5.47261 12.2637 5.50714C12.2646 5.52193 12.2659 5.53667 12.2666 5.5515C12.2687 5.59562 12.2698 5.63998 12.2699 5.68459C12.2699 5.68846 12.2702 5.69223 12.2702 5.6961C12.2702 5.69789 12.2701 5.69972 12.2701 5.70151C12.27 5.74468 12.2687 5.78755 12.2668 5.83028C12.2662 5.84372 12.2656 5.85717 12.2648 5.87057C12.2625 5.91185 12.2594 5.95294 12.2555 5.99373C12.2539 6.00951 12.2518 6.02524 12.2501 6.04097C12.247 6.06737 12.2436 6.09371 12.24 6.11991C12.2371 6.14031 12.2342 6.16075 12.2309 6.18105C12.2259 6.21196 12.2204 6.24268 12.2144 6.27329C12.2091 6.30053 12.2033 6.32768 12.1973 6.35477C12.1936 6.3711 12.1899 6.38742 12.1859 6.40365C12.1763 6.44389 12.1656 6.48388 12.1543 6.52373C12.1498 6.53956 12.1456 6.55549 12.1408 6.57117C12.1339 6.59399 12.1265 6.61662 12.1191 6.63925C12.1131 6.65736 12.107 6.67537 12.1007 6.69334C12.0936 6.71373 12.0865 6.73417 12.079 6.75442C12.0662 6.78881 12.0527 6.8229 12.0386 6.85669C12.0324 6.87177 12.0257 6.88671 12.0192 6.90174C12.007 6.92988 11.9944 6.95787 11.9813 6.98555C11.9797 6.98883 11.9782 6.9921 11.9766 6.99538C11.9719 7.0052 11.9673 7.01508 11.9624 7.0249C11.9478 7.05487 11.9325 7.0845 11.9168 7.11387C11.9107 7.12529 11.9048 7.13685 11.8985 7.14821C11.8981 7.14896 11.8977 7.14965 11.8973 7.15035C11.8802 7.18161 11.8623 7.21237 11.8441 7.24294C11.8368 7.25505 11.8297 7.2672 11.8223 7.27916C11.8024 7.31137 11.782 7.34322 11.761 7.37458C11.748 7.39408 11.7343 7.41319 11.7208 7.43239C11.7094 7.44867 11.698 7.46499 11.6862 7.48102C11.671 7.50176 11.6554 7.52226 11.6397 7.54265C11.6289 7.55649 11.6181 7.57024 11.6072 7.58393C11.5905 7.60477 11.5737 7.62552 11.5565 7.64591C11.5459 7.65856 11.5349 7.67097 11.524 7.68342C11.5062 7.70392 11.4884 7.72446 11.47 7.74446C11.4591 7.75632 11.4478 7.76773 11.4367 7.77944C11.4068 7.81095 11.3762 7.84176 11.3451 7.87198C11.3266 7.8899 11.3081 7.90786 11.2892 7.92528C11.2761 7.93734 11.2626 7.94905 11.2493 7.96091C11.2276 7.98021 11.2057 7.99931 11.1834 8.01797C11.1721 8.02745 11.1607 8.03683 11.1492 8.04615C11.1223 8.06809 11.095 8.08957 11.0672 8.11061C11.0597 8.11632 11.0522 8.12212 11.0447 8.12778C10.5405 8.50257 9.91647 8.72472 9.24143 8.72472C8.56633 8.72472 7.9422 8.50252 7.43805 8.12763C7.4306 8.12207 7.42331 8.11637 7.41592 8.11076C7.38808 8.08967 7.36064 8.06804 7.3336 8.04601C7.32223 8.03673 7.31087 8.02745 7.29965 8.01802C7.27728 7.99926 7.25534 7.98006 7.23351 7.96071C7.22026 7.9489 7.20686 7.93729 7.19381 7.92528C7.17481 7.90781 7.15635 7.8898 7.13779 7.87188C7.10648 7.84157 7.07586 7.81065 7.04589 7.77904C7.03493 7.76748 7.02371 7.75622 7.01294 7.74451C6.99453 7.72446 6.97672 7.70387 6.95886 7.68337C6.94799 7.67092 6.93707 7.65856 6.92641 7.64591C6.90919 7.62552 6.89242 7.60477 6.87574 7.58398C6.86483 7.57029 6.85396 7.55654 6.84324 7.54265C6.82751 7.52231 6.81198 7.50181 6.79675 7.48107C6.78499 7.46499 6.77352 7.44862 6.76206 7.43229C6.74856 7.41314 6.73497 7.39408 6.72197 7.37463C6.70088 7.34312 6.68038 7.31117 6.66049 7.27886C6.65319 7.267 6.64615 7.25505 6.639 7.24309C6.62049 7.21207 6.60238 7.18091 6.58496 7.1492C6.57856 7.13754 6.57251 7.12568 6.56621 7.11397C6.55053 7.0845 6.53519 7.05477 6.52046 7.02475C6.5152 7.01409 6.51008 7.00332 6.50497 6.9926C6.50418 6.99096 6.50344 6.98933 6.50269 6.98769C6.48895 6.95871 6.4758 6.92943 6.46294 6.89991C6.45684 6.88587 6.45064 6.87187 6.44478 6.85778C6.43039 6.82324 6.41665 6.78841 6.4035 6.75328C6.3964 6.73432 6.38985 6.71517 6.38315 6.69606C6.37626 6.67646 6.36961 6.65671 6.36311 6.63692C6.35611 6.61548 6.34906 6.59404 6.34251 6.57251C6.33274 6.5403 6.32351 6.5079 6.31483 6.4753C6.30872 6.45242 6.30321 6.42935 6.29761 6.40633C6.29324 6.38822 6.28902 6.3701 6.285 6.35189C6.28004 6.32956 6.27503 6.30728 6.27056 6.28485C6.26367 6.24992 6.25736 6.21479 6.25171 6.17946C6.24863 6.16041 6.24595 6.1413 6.24322 6.12225C6.2392 6.09401 6.23558 6.06563 6.23236 6.03715C6.23077 6.0231 6.22893 6.00906 6.22749 5.99502C6.22337 5.95319 6.22025 5.91106 6.21787 5.86878C6.21717 5.85663 6.21663 5.84447 6.21608 5.83231C6.21405 5.78711 6.21261 5.74175 6.21261 5.6961C6.21261 5.64717 6.214 5.5986 6.21633 5.55022C6.21697 5.53707 6.21806 5.52401 6.21881 5.51091C6.22099 5.47459 6.22362 5.43837 6.2271 5.40234C6.22829 5.38979 6.22973 5.37729 6.23107 5.36478C6.23533 5.32578 6.24015 5.28698 6.2459 5.24842C6.24699 5.24093 6.24809 5.23338 6.24928 5.22589C6.42062 4.13125 7.18022 3.22919 8.19353 2.85435ZM2.33631 4.02124C2.33631 2.35119 3.69498 0.992471 5.36508 0.992471C6.23657 0.992471 7.05984 1.37182 7.62904 2.01114C6.30768 2.58516 5.39182 3.82633 5.24232 5.27631C5.24127 5.28613 5.24053 5.29601 5.23959 5.30588C5.23462 5.35754 5.2307 5.40939 5.22773 5.46154C5.22683 5.47742 5.22584 5.49325 5.2251 5.50918C5.22227 5.57125 5.22033 5.63353 5.22033 5.69625C5.22033 5.75957 5.22217 5.82273 5.22515 5.88585C5.22634 5.91126 5.22842 5.93642 5.23006 5.96167C5.23249 5.998 5.23497 6.03432 5.23835 6.07054C5.24132 6.10275 5.245 6.13475 5.24877 6.16676C5.25204 6.19464 5.25552 6.22243 5.25939 6.25022C5.26445 6.28669 5.26991 6.32301 5.27591 6.35919C5.27953 6.38067 5.2835 6.40211 5.28742 6.42355C5.29486 6.46404 5.30246 6.50443 5.31109 6.54447C5.31397 6.55767 5.31724 6.57077 5.32022 6.58392C5.35391 6.73293 5.39574 6.87882 5.44556 7.02108C5.44874 7.03026 5.45152 7.03954 5.45474 7.04867C5.42482 7.04956 5.39485 7.05001 5.36498 7.05001C3.69498 7.04996 2.33631 5.69129 2.33631 4.02124ZM4.70844 10.348C4.69753 10.3652 4.68711 10.3827 4.67639 10.4C4.65371 10.4366 4.63123 10.4734 4.6095 10.5104C4.59734 10.5311 4.58563 10.552 4.57382 10.5728C4.55427 10.6072 4.53497 10.6417 4.51621 10.6765C4.5044 10.6984 4.49279 10.7203 4.48128 10.7423C4.46322 10.7769 4.4456 10.8117 4.42833 10.8466C4.41747 10.8685 4.40665 10.8904 4.39613 10.9124C4.37856 10.9492 4.36164 10.9863 4.34492 11.0234C4.33584 11.0436 4.32651 11.0636 4.31773 11.0839C4.29837 11.1284 4.27992 11.1732 4.2618 11.2181C4.25649 11.2313 4.25084 11.2443 4.24568 11.2574C4.2227 11.3158 4.20072 11.3746 4.17988 11.4337C4.17512 11.4473 4.17085 11.461 4.16613 11.4745C4.15045 11.5201 4.13517 11.5658 4.12073 11.6117C4.11413 11.6328 4.10803 11.654 4.10168 11.6751C4.09002 11.714 4.07855 11.7529 4.06779 11.7921C4.06138 11.8155 4.05528 11.8388 4.04918 11.8623C4.03935 11.8999 4.02992 11.9376 4.02099 11.9754C4.01529 11.9994 4.00973 12.0234 4.00442 12.0474C3.99588 12.0858 3.9879 12.1243 3.9802 12.1628C3.97559 12.186 3.97083 12.2092 3.96651 12.2324C3.95872 12.2744 3.95172 12.3166 3.94492 12.3588C3.94175 12.3787 3.93823 12.3984 3.93525 12.4183C3.92602 12.4803 3.91763 12.5425 3.91059 12.6049C3.91049 12.6057 3.91044 12.6064 3.91039 12.6072C3.90399 12.664 3.89848 12.7209 3.89386 12.778H0.992421V11.5338C0.992421 9.83385 1.96966 8.30776 3.50067 7.5824C4.05841 7.87556 4.69242 8.04243 5.36503 8.04243C5.55954 8.04243 5.75465 8.02804 5.94828 7.99956C5.97844 8.04258 6.00911 8.08516 6.04087 8.12694C6.05159 8.14098 6.0627 8.15468 6.07362 8.16857C6.10498 8.20866 6.13679 8.24831 6.16963 8.28716C6.18308 8.30309 6.19688 8.31867 6.21057 8.3344C6.24134 8.36973 6.2726 8.40462 6.30455 8.43881C6.32133 8.45682 6.3384 8.47453 6.35547 8.49225C6.38469 8.52237 6.41432 8.55204 6.44444 8.58127C6.45575 8.59223 6.46642 8.60385 6.47783 8.61471C6.43471 8.64076 6.39199 8.66746 6.34966 8.6947C6.34276 8.69912 6.33601 8.70378 6.32917 8.70825C6.28684 8.73574 6.24496 8.76382 6.20348 8.79245C6.18914 8.80238 6.17484 8.8124 6.16055 8.82243C6.12359 8.84848 6.08702 8.87497 6.05074 8.90192C6.03928 8.91045 6.02767 8.91879 6.01631 8.92742C5.97016 8.96231 5.92456 8.99784 5.87955 9.03416C5.86972 9.0421 5.8601 9.05029 5.85027 9.05832C5.81445 9.08765 5.77897 9.11747 5.74394 9.14774C5.73034 9.15945 5.71684 9.17126 5.70335 9.18312C5.66826 9.21404 5.63363 9.2454 5.59934 9.2772C5.59041 9.28549 5.58128 9.29363 5.5724 9.30201C5.53032 9.34161 5.48888 9.38195 5.44805 9.42299C5.43743 9.43366 5.42706 9.44452 5.41654 9.45524C5.38527 9.48715 5.35436 9.5194 5.32384 9.5521C5.31174 9.5651 5.29963 9.5781 5.28762 9.59125C5.25328 9.62877 5.21944 9.66678 5.18615 9.70533C5.18093 9.71139 5.17553 9.71724 5.17032 9.72335C5.13236 9.76766 5.09524 9.81281 5.05862 9.85841C5.0484 9.87112 5.03842 9.88402 5.02835 9.89687C5.00081 9.93185 4.97367 9.96718 4.94697 10.0029C4.93665 10.0167 4.92628 10.0304 4.91611 10.0442C4.88117 10.0919 4.84669 10.1399 4.81319 10.1888C4.77722 10.2413 4.74238 10.2944 4.70844 10.348ZM4.86887 14.453V13.7705V13.2088C4.86887 13.1537 4.86991 13.0988 4.87194 13.0441C4.87259 13.0261 4.87403 13.0082 4.87492 12.9902C4.87671 12.9537 4.8784 12.9172 4.88107 12.8808C4.88271 12.8587 4.88519 12.8368 4.88718 12.8148C4.89006 12.7827 4.89264 12.7506 4.89621 12.7188C4.89884 12.6954 4.90226 12.6723 4.90524 12.649C4.90911 12.6187 4.91273 12.5883 4.9172 12.5581C4.92082 12.5341 4.92519 12.5103 4.92916 12.4864C4.93402 12.4573 4.93854 12.4281 4.94399 12.3992C4.94861 12.3747 4.95397 12.3505 4.95898 12.3262C4.96474 12.2981 4.97024 12.2699 4.97655 12.242C4.9821 12.2174 4.98845 12.193 4.99441 12.1685C5.00111 12.1412 5.00751 12.1138 5.0147 12.0866C5.02125 12.062 5.0285 12.0376 5.03545 12.0131C5.04299 11.9865 5.05033 11.9598 5.05837 11.9333C5.06586 11.9087 5.0741 11.8843 5.08199 11.8598C5.09043 11.8339 5.09861 11.8079 5.1075 11.7821C5.11593 11.7578 5.12501 11.7336 5.13384 11.7094C5.14317 11.6839 5.1523 11.6583 5.16208 11.633C5.17141 11.6089 5.18133 11.5852 5.19101 11.5613C5.20118 11.5363 5.2112 11.5112 5.22182 11.4864C5.23209 11.4626 5.24291 11.4389 5.25358 11.4153C5.26455 11.391 5.27541 11.3665 5.28683 11.3424C5.29799 11.3188 5.3097 11.2955 5.32126 11.2722C5.33307 11.2484 5.34473 11.2245 5.35694 11.2009C5.369 11.1777 5.38155 11.1548 5.39401 11.1318C5.40661 11.1085 5.41907 11.0852 5.43207 11.0622C5.44497 11.0394 5.45837 11.0169 5.47161 10.9943C5.48501 10.9716 5.49831 10.9488 5.51216 10.9263C5.5259 10.9039 5.54009 10.8819 5.55423 10.8598C5.56843 10.8376 5.58252 10.8154 5.59711 10.7935C5.6117 10.7715 5.62668 10.7499 5.64167 10.7283C5.6566 10.7067 5.67149 10.6851 5.68677 10.6638C5.70215 10.6423 5.71798 10.6212 5.73381 10.6C5.74949 10.579 5.76512 10.558 5.78115 10.5373C5.79733 10.5164 5.8139 10.4958 5.83047 10.4752C5.8469 10.4548 5.86337 10.4344 5.88015 10.4142C5.89707 10.394 5.91433 10.374 5.9316 10.354C5.94882 10.3341 5.96609 10.3142 5.9837 10.2946C6.00132 10.2749 6.01933 10.2556 6.0373 10.2362C6.05526 10.2169 6.07322 10.1977 6.09153 10.1788C6.10989 10.1597 6.1286 10.141 6.14735 10.1222C6.16606 10.1035 6.18487 10.0849 6.20392 10.0665C6.22293 10.0482 6.24223 10.0302 6.26163 10.0121C6.28108 9.99408 6.30063 9.97607 6.32043 9.9583C6.34018 9.94064 6.36013 9.92322 6.38023 9.9059C6.40037 9.88848 6.42067 9.87117 6.44116 9.8541C6.46156 9.83713 6.48215 9.82041 6.50289 9.80378C6.52378 9.78701 6.54482 9.77039 6.56606 9.75396C6.58705 9.73779 6.60823 9.72181 6.62952 9.70593C6.65116 9.6898 6.67294 9.67387 6.69497 9.65814C6.71651 9.64271 6.73824 9.62753 6.76013 9.61244C6.78255 9.59701 6.80508 9.58178 6.82781 9.56674C6.84989 9.55215 6.87217 9.53771 6.89455 9.52347C6.91772 9.50873 6.94104 9.4942 6.96451 9.47991C6.98714 9.46611 7.00992 9.45246 7.03284 9.43907C7.05666 9.42512 7.08068 9.41138 7.10484 9.39783C7.12802 9.38483 7.15134 9.37198 7.17481 9.35938C7.19937 9.34618 7.22413 9.33323 7.24904 9.32042C7.27266 9.30827 7.29638 9.29631 7.3203 9.28455C7.3391 9.27532 7.35811 9.26639 7.37711 9.2574C7.9348 9.55057 8.56891 9.71739 9.24148 9.71739C9.91409 9.71739 10.5481 9.55057 11.1058 9.2574C11.1247 9.26634 11.1436 9.27522 11.1622 9.28435C11.1864 9.29626 11.2104 9.30836 11.2343 9.32062C11.2589 9.33327 11.2834 9.34608 11.3077 9.35913C11.3315 9.37188 11.355 9.38488 11.3785 9.39803C11.4023 9.41143 11.426 9.42497 11.4496 9.43877C11.4728 9.45236 11.4959 9.46621 11.5188 9.4802C11.542 9.49434 11.565 9.50864 11.5878 9.52317C11.6105 9.53761 11.6331 9.5522 11.6554 9.56704C11.6779 9.58188 11.7002 9.59696 11.7223 9.6122C11.7444 9.62743 11.7664 9.64276 11.7882 9.65834C11.81 9.67392 11.8315 9.6897 11.8529 9.70568C11.8745 9.72166 11.8959 9.73779 11.917 9.75416C11.9381 9.77044 11.9589 9.78691 11.9797 9.80353C12.0005 9.82026 12.0212 9.83708 12.0418 9.85415C12.0622 9.87112 12.0823 9.88834 12.1024 9.90565C12.1226 9.92307 12.1427 9.94059 12.1625 9.9584C12.1822 9.97602 12.2016 9.99388 12.2209 10.0118C12.2404 10.03 12.2599 10.0482 12.2791 10.0667C12.298 10.0849 12.3166 10.1034 12.3352 10.1219C12.354 10.1408 12.3729 10.1597 12.3914 10.1788C12.4095 10.1977 12.4274 10.2167 12.4453 10.2359C12.4634 10.2554 12.4815 10.2749 12.4993 10.2947C12.5168 10.3142 12.5339 10.3339 12.551 10.3536C12.5684 10.3737 12.5858 10.3939 12.6028 10.4143C12.6195 10.4343 12.6359 10.4546 12.6522 10.4749C12.6689 10.4956 12.6855 10.5163 12.7018 10.5374C12.7178 10.558 12.7333 10.5789 12.7489 10.5998C12.7648 10.621 12.7806 10.6423 12.7961 10.6638C12.8114 10.685 12.8262 10.7065 12.841 10.728C12.8561 10.7498 12.8712 10.7715 12.8858 10.7935C12.9003 10.8153 12.9143 10.8373 12.9284 10.8594C12.9426 10.8816 12.9569 10.9039 12.9707 10.9264C12.9844 10.9487 12.9976 10.9713 13.0109 10.9938C13.0243 11.0166 13.0378 11.0392 13.0508 11.0622C13.0637 11.0851 13.0761 11.1084 13.0887 11.1315C13.1012 11.1546 13.1138 11.1776 13.1259 11.2009C13.1381 11.2244 13.1497 11.2483 13.1615 11.272C13.1731 11.2954 13.1848 11.3187 13.196 11.3423C13.2074 11.3664 13.2182 11.3908 13.2291 11.4151C13.2398 11.4389 13.2507 11.4625 13.261 11.4865C13.2715 11.511 13.2814 11.5359 13.2915 11.5607C13.3014 11.5848 13.3114 11.6088 13.3208 11.6332C13.3305 11.6583 13.3396 11.6838 13.3489 11.7092C13.3577 11.7334 13.3668 11.7576 13.3753 11.7821C13.3842 11.8079 13.3924 11.8341 13.4009 11.8601C13.4088 11.8845 13.4169 11.9088 13.4244 11.9333C13.4325 11.9598 13.4398 11.9865 13.4474 12.0132C13.4543 12.0376 13.4615 12.062 13.4681 12.0866C13.4753 12.1138 13.4817 12.1412 13.4884 12.1685C13.4944 12.193 13.5007 12.2174 13.5063 12.242C13.5126 12.2699 13.518 12.298 13.5238 12.3261C13.5288 12.3504 13.5342 12.3747 13.5388 12.3992C13.5442 12.4279 13.5487 12.4568 13.5535 12.4857C13.5576 12.5099 13.562 12.5339 13.5657 12.5582C13.5701 12.5881 13.5737 12.6183 13.5776 12.6484C13.5806 12.6718 13.5841 12.6952 13.5867 12.7187C13.5903 12.7506 13.5928 12.7827 13.5957 12.8147C13.5977 12.8368 13.6002 12.8587 13.6018 12.8807C13.6046 12.9171 13.6062 12.9537 13.608 12.9903C13.6089 13.0082 13.6103 13.0261 13.611 13.044C13.613 13.0988 13.614 13.1536 13.614 13.2087V13.7704V14.453H4.86887ZM14.5893 12.778C14.5796 12.6571 14.5656 12.537 14.5479 12.4176C14.545 12.3987 14.5417 12.38 14.5386 12.3611C14.5317 12.3179 14.5245 12.2748 14.5165 12.2318C14.5123 12.2092 14.5077 12.1866 14.5032 12.1641C14.4954 12.1248 14.4873 12.0857 14.4786 12.0467C14.4733 12.0231 14.4679 11.9996 14.4623 11.9762C14.4532 11.9379 14.4437 11.8997 14.4338 11.8617C14.4278 11.8386 14.4218 11.8156 14.4154 11.7925C14.4045 11.7529 14.3929 11.7135 14.3811 11.6742C14.3749 11.6535 14.3689 11.6327 14.3624 11.612C14.3478 11.5654 14.3323 11.519 14.3164 11.4728C14.3119 11.4599 14.3078 11.4468 14.3033 11.4339C14.2823 11.3746 14.2603 11.3157 14.2373 11.2571C14.2323 11.2445 14.2269 11.2321 14.2218 11.2196C14.2035 11.1741 14.1848 11.1287 14.1652 11.0836C14.1565 11.0636 14.1473 11.0439 14.1384 11.024C14.1215 10.9865 14.1044 10.9491 14.0867 10.912C14.0763 10.8902 14.0656 10.8686 14.0549 10.8471C14.0375 10.8118 14.0197 10.7768 14.0015 10.7419C13.9901 10.72 13.9786 10.6983 13.9669 10.6766C13.948 10.6417 13.9287 10.6071 13.909 10.5726C13.8972 10.5518 13.8856 10.5311 13.8735 10.5105C13.8517 10.4732 13.8291 10.4364 13.8063 10.3995C13.7956 10.3824 13.7853 10.365 13.7745 10.348C13.7405 10.2945 13.7057 10.2413 13.6697 10.1888C13.6361 10.1399 13.6016 10.0918 13.5667 10.0442C13.5566 10.0304 13.5463 10.0168 13.536 10.0031C13.5092 9.96718 13.4819 9.93175 13.4543 9.89662C13.4443 9.88397 13.4345 9.87117 13.4243 9.85861C13.3877 9.81286 13.3504 9.76761 13.3123 9.7232C13.3074 9.71744 13.3023 9.71183 13.2973 9.70608C13.2638 9.66722 13.2296 9.62892 13.195 9.59111C13.1831 9.5781 13.1712 9.56525 13.1592 9.55235C13.1285 9.51945 13.0974 9.48695 13.0659 9.4549C13.0555 9.44433 13.0454 9.43366 13.0349 9.42319C12.994 9.3821 12.9524 9.34161 12.9102 9.30191C12.9015 9.29373 12.8926 9.28579 12.8839 9.27765C12.8494 9.24564 12.8145 9.21413 12.7793 9.18307C12.7659 9.17126 12.7524 9.15955 12.7389 9.14784C12.7038 9.11752 12.6683 9.0877 12.6324 9.05832C12.6227 9.05034 12.6131 9.04215 12.6033 9.03421C12.5583 8.99789 12.5127 8.96236 12.4666 8.92752C12.4551 8.91884 12.4434 8.9104 12.4318 8.90182C12.3957 8.87502 12.3593 8.84863 12.3225 8.82272C12.3081 8.81255 12.2936 8.80243 12.2791 8.79241C12.238 8.76407 12.1966 8.73628 12.1547 8.70909C12.1474 8.70433 12.1402 8.69937 12.1328 8.69465C12.0906 8.66751 12.048 8.64086 12.0049 8.61486C12.016 8.60429 12.0265 8.59303 12.0374 8.58231C12.0682 8.55254 12.0984 8.52227 12.1282 8.4915C12.1448 8.47433 12.1613 8.45712 12.1776 8.43965C12.2101 8.40491 12.2418 8.36948 12.273 8.33361C12.2863 8.31837 12.2997 8.30324 12.3127 8.28776C12.346 8.24836 12.3784 8.20812 12.4102 8.16738C12.4206 8.15408 12.4313 8.14098 12.4415 8.12753C12.4734 8.0856 12.5042 8.04283 12.5345 7.99966C12.7281 8.02809 12.9233 8.04248 13.1178 8.04248C13.7904 8.04248 14.4244 7.87566 14.9821 7.58245C16.5132 8.30781 17.4904 9.8339 17.4904 11.5338V12.778H14.5893Z" fill="#7B7F90"/>
</svg>
