<svg width="18" height="18" viewBox="0 0 18 18" fill="none" xmlns="http://www.w3.org/2000/svg">
<path d="M9 0C4.02078 0 0 4.03314 0 9C0 13.9726 4.0282 18 9 18C13.9942 18 18 13.9535 18 9C18 4.02145 13.9639 0 9 0ZM13.6314 14.3008C12.3485 15.425 10.7216 16.0392 9 16.0392C7.27875 16.0392 5.65208 15.4252 4.36929 14.3014C4.19577 14.1494 4.11733 13.9158 4.16361 13.6898C4.60675 11.5253 5.98545 9.8182 7.74043 9.25655C6.82463 8.71443 6.19608 7.60067 6.19608 6.31373C6.19608 4.49443 7.45145 3.01961 9 3.01961C10.5485 3.01961 11.8039 4.49443 11.8039 6.31373C11.8039 7.60047 11.1756 8.71408 10.26 9.25628C12.015 9.8178 13.3937 11.5248 13.837 13.6891C13.8833 13.9148 13.8047 14.1489 13.6314 14.3008Z" fill="#7B7F90"/>
</svg>
