<svg width="378" height="383" viewBox="0 0 378 383" fill="none" xmlns="http://www.w3.org/2000/svg">
<path opacity="0.36" d="M156.429 265.559C229.761 265.559 289.208 206.111 289.208 132.779C289.208 59.4473 229.761 0 156.429 0C83.0972 0 23.6499 59.4473 23.6499 132.779C23.6499 206.111 83.0972 265.559 156.429 265.559Z" fill="#364574"/>
<path opacity="0.36" d="M193.412 382.461C294.368 382.461 376.21 377.009 376.21 370.283C376.21 363.558 294.368 358.105 193.412 358.105C92.4552 358.105 10.6138 363.558 10.6138 370.283C10.6138 377.009 92.4552 382.461 193.412 382.461Z" fill="#001EFF"/>
<path d="M137.426 252.698C137.426 252.698 136.912 242.163 122.007 236.551C121.998 236.551 124.305 250.783 137.426 252.698Z" fill="#48BE97"/>
<path d="M136.239 271.329C136.239 271.329 134.689 257.732 114.919 251.718C114.919 251.727 119.103 269.947 136.239 271.329Z" fill="#48BE97"/>
<path d="M141.178 298.288C141.178 298.288 138.928 282.524 115.73 276.174C115.739 276.164 121.193 297.233 141.178 298.288Z" fill="#48BE97"/>
<path d="M157.372 326.55C157.372 326.55 148.584 309.516 119.699 311.478C119.709 311.468 134.249 333.256 157.372 326.55Z" fill="#48BE97"/>
<path d="M137.397 252.903C137.397 252.903 139.442 242.556 155.001 239.166C155.01 239.166 150.658 252.913 137.397 252.903Z" fill="#48BE97"/>
<path d="M135.857 271.506C135.857 271.506 139.368 258.273 159.802 255.21C159.811 255.21 153.022 272.636 135.857 271.506Z" fill="#48BE97"/>
<path d="M140.807 298.17C140.807 298.17 138.827 282.369 159.531 270.145C159.541 270.135 159.811 291.895 140.807 298.17Z" fill="#48BE97"/>
<path d="M156.104 326.716C156.104 326.716 148.371 309.178 168.039 287.941C168.039 287.941 175.855 312.941 156.104 326.716Z" fill="#48BE97"/>
<path d="M137.641 252.379C137.641 252.379 123.054 313.137 189.826 356.544" stroke="#48BE97" stroke-width="2.0108" stroke-miterlimit="10" stroke-linecap="round"/>
<path d="M247.659 272.196C247.659 272.196 249.63 261.83 265.169 258.337C265.16 258.337 260.911 272.102 247.659 272.196Z" fill="#48BE97"/>
<path d="M245.877 290.987C245.877 290.987 249.295 277.736 269.71 274.514C269.71 274.514 263.042 291.987 245.877 290.987Z" fill="#48BE97"/>
<path d="M237.798 316.379C237.798 316.379 246.007 302.726 269.84 305.91C269.84 305.91 256.616 323.187 237.798 316.379Z" fill="#48BE97"/>
<path d="M218.524 342.574C218.524 342.574 232.448 329.397 259.054 340.781C259.054 340.781 238.135 356.545 218.524 342.574Z" fill="#48BE97"/>
<path d="M247.652 272.393C247.652 272.393 247.064 261.859 232.112 256.358C232.112 256.358 234.522 270.572 247.652 272.393Z" fill="#48BE97"/>
<path d="M245.877 290.939C245.877 290.939 244.233 277.351 224.416 271.486C224.416 271.477 228.731 289.678 245.877 290.939Z" fill="#48BE97"/>
<path d="M238.014 316.753C238.014 316.753 242.161 301.371 223.343 286.401C223.343 286.401 220.065 307.909 238.014 316.753Z" fill="#48BE97"/>
<path d="M218.906 342.921C218.906 342.921 228.992 326.616 212.453 302.867C212.453 302.858 201.256 326.532 218.906 342.921Z" fill="#48BE97"/>
<path d="M247.482 271.843C247.482 271.843 249.621 322.889 209.651 349.785" stroke="#48BE97" stroke-width="2.0108" stroke-miterlimit="10" stroke-linecap="round"/>
<path d="M56.3369 370.285C60.8475 360.508 68.8789 331.819 56.505 325.823C48.7444 322.06 46.4751 328.503 46.4751 328.503C46.4751 328.503 52.0784 297.125 38.7893 297.06C31.0381 297.022 29.74 305.913 29.74 305.913C29.74 305.913 25.5282 296.098 20.3731 293.249C9.17589 287.048 -4.15994 293.455 6.16879 310.993C8.97043 315.747 12.8647 319.165 12.8647 319.165C12.8647 319.165 1.1912 314.766 0.0425246 323.115C-1.09681 331.464 21.0362 344.734 21.0362 344.734C21.0362 344.734 14.415 344.986 14.1535 352.635C13.7986 362.973 35.1471 370.285 35.1471 370.285H56.3369V370.285Z" fill="#36A871"/>
<path d="M14.0796 300.89C28.6014 322.173 40.5271 328.505 50.2301 368.148" stroke="white" stroke-width="0.794" stroke-miterlimit="10" stroke-linecap="round"/>
<path d="M66.1856 370.283C65.7094 355.752 87.1606 325.55 74.1703 318.229C66.0176 313.634 63.7202 321.936 63.7202 321.936C63.7202 321.936 82.0803 290.829 64.514 288.746C58.3971 288.018 54.839 296.964 54.839 296.964C54.839 296.964 54.6896 280.948 49.7867 274.953C41.7927 265.166 25.0575 270.638 28.9985 291.735C31.1651 303.305 39.1124 307.891 39.1124 307.891C39.1124 307.891 31.0717 301.755 27.2335 309.815C22.0971 320.61 39.3272 334.562 39.3272 334.562C39.3272 334.562 31.6134 328.847 26.5237 338.195C19.641 350.812 45.8177 370.302 45.8177 370.302H66.1856V370.283Z" fill="#48BE97"/>
<path d="M42.9595 286.571C52.7839 311.525 57.9109 338.906 60.0308 367.828" stroke="white" stroke-width="0.794" stroke-miterlimit="10" stroke-linecap="round"/>
<path d="M324.295 370.282C327.489 358.478 312.099 335.224 324.053 329.285C331.552 325.559 335.577 329.369 335.577 329.369C335.577 329.369 326.752 305.928 341.395 304.238C346.503 303.65 348.044 308.198 348.044 308.198C348.044 308.198 350.071 301.259 355.543 296.898C365.919 288.642 379.441 291.705 372.166 308.833C368.179 318.228 365.022 319.61 365.022 319.61C365.022 319.61 372.232 318.209 373.791 324.756C375.874 333.525 358.597 348.196 358.597 348.196C358.597 348.196 364.807 348.784 365.62 353.426C367.431 363.698 345.653 370.282 345.653 370.282H324.295Z" fill="#36A871"/>
<path d="M367.451 298.614C347.578 314.752 346.841 347.596 336.773 366.563" stroke="white" stroke-width="0.7248" stroke-miterlimit="10" stroke-linecap="round"/>
<path d="M315.3 370.282C308.1 358.441 292.448 323.719 303.926 316.453C311.126 311.896 315.132 319.703 315.132 319.703C315.132 319.703 301.339 281.713 315.282 281.629C323.406 281.582 327.021 292.35 327.021 292.35C327.021 292.35 329.776 281.209 333.642 274.504C342.532 259.085 363.386 265.249 356.027 289.707C354.159 295.908 348.556 303.771 348.556 303.771C348.556 303.771 361.509 302.996 361.163 314.203C360.836 324.83 342.887 334.832 342.887 334.832C342.887 334.832 354.822 332.171 357.017 341.435C359.987 353.949 333.632 370.273 333.632 370.273H315.3V370.282Z" fill="#48BE97"/>
<path d="M346.098 280.647C336.068 314.622 321.378 319.693 321.173 367.685" stroke="white" stroke-width="0.7248" stroke-miterlimit="10" stroke-linecap="round"/>
<path d="M193.516 282.081C193.516 282.081 194.328 274.88 204.788 271.687C204.788 271.687 202.584 281.343 193.516 282.081Z" fill="#36A871"/>
<path d="M193.516 294.902C193.516 294.902 195.169 285.657 208.981 282.397C208.981 282.397 205.32 294.706 193.516 294.902Z" fill="#36A871"/>
<path d="M188.948 313.151C188.948 313.151 191.18 302.448 207.346 299.114C207.346 299.114 202.686 313.309 188.948 313.151Z" fill="#36A871"/>
<path d="M176.612 331.811C176.612 331.811 183.383 320.52 203.079 323.126C203.088 323.126 192.171 337.414 176.612 331.811Z" fill="#36A871"/>
<path d="M193.524 282.222C193.524 282.222 192.581 275.041 182.056 272.043C182.056 272.043 184.438 281.653 193.524 282.222Z" fill="#36A871"/>
<path d="M193.766 295.034C193.766 295.034 191.936 285.817 178.068 282.819C178.068 282.819 181.953 295.063 193.766 295.034Z" fill="#36A871"/>
<path d="M189.211 313.085C189.211 313.085 191.256 302.345 177.602 293.062C177.602 293.062 176.463 307.958 189.211 313.085Z" fill="#36A871"/>
<path d="M177.482 331.98C177.482 331.98 183.543 320.297 171.001 304.888C171.001 304.888 164.548 321.679 177.482 331.98Z" fill="#36A871"/>
<path d="M193.385 281.848C193.385 281.848 200.725 324.115 153.069 350.936" stroke="#36A871" stroke-width="1.3805" stroke-miterlimit="10" stroke-linecap="round"/>
<path d="M194.652 370.285C182.493 370.285 183.091 370.285 180.887 370.285C171.315 370.285 156.429 343.473 156.429 333.079C156.429 322.751 171.268 295.36 180.887 295.36C185.612 295.36 182.418 295.36 194.652 295.36C206.839 295.36 216.468 299.151 223.276 306.632C229.813 313.832 233.128 322.732 233.128 333.079C233.128 343.501 229.776 352.355 223.164 359.396C216.365 366.624 206.774 370.285 194.652 370.285ZM158.25 262.991L158.464 252.224C158.829 233.649 161.35 219.146 166.169 207.883C171.034 196.518 180.336 184.583 194.606 171.406L194.83 171.21L227.889 142.371C239.927 130.8 245.782 119.015 245.782 106.351C245.782 94.3137 242.336 85.3018 235.248 78.8113C227.992 72.1714 216.72 68.8094 201.759 68.8094C186.882 68.8094 174.985 72.022 166.402 78.363C158.586 84.1344 154.944 91.3533 154.944 101.075V111.628H86.7236L86.8824 100.916C87.2653 74.3287 98.5653 52.5973 120.455 36.3197C141.43 20.7332 168.784 12.8232 201.759 12.8232C236.079 12.8232 263.479 20.9574 283.184 37.0014C303.534 53.5778 313.853 76.4673 313.853 105.025C313.853 133.117 298.827 160.713 269.185 187.048L268.961 187.244L241.533 210.246C231.438 219.846 226.535 233.649 226.535 252.429V262.982H158.25V262.991Z" fill="#48BE97"/>
<path d="M180.895 370.285C168.736 370.285 159.173 366.606 152.458 359.331C145.968 352.299 142.671 343.473 142.671 333.079C142.671 322.751 145.921 313.879 152.337 306.697C159.061 299.17 168.67 295.35 180.895 295.35C193.082 295.35 202.71 299.142 209.518 306.622C216.056 313.823 219.371 322.722 219.371 333.07C219.371 343.492 216.018 352.345 209.406 359.387C202.598 366.624 193.007 370.285 180.895 370.285ZM144.492 262.991L144.707 252.224C145.071 233.649 147.593 219.146 152.412 207.883C157.277 196.518 166.579 184.583 180.848 171.406L181.072 171.21L214.132 142.371C226.17 130.8 232.025 119.015 232.025 106.351C232.025 94.3137 228.579 85.3018 221.491 78.8113C214.235 72.1714 202.963 68.8094 188.002 68.8094C173.125 68.8094 161.227 72.022 152.645 78.363C144.828 84.1344 141.186 91.3533 141.186 101.075V111.628H72.9663L73.1251 100.916C73.508 74.3287 84.8079 52.5973 106.698 36.3197C127.673 20.7332 155.026 12.8232 188.002 12.8232C222.322 12.8232 249.722 20.9574 269.427 37.0014C289.776 53.5778 300.096 76.4673 300.096 105.025C300.096 133.117 285.069 160.713 255.428 187.048L255.204 187.244L227.776 210.246C217.681 219.846 212.778 233.649 212.778 252.429V262.982H144.492V262.991Z" fill="white"/>
<path d="M93.6795 355.687C94.025 360.132 92.5588 370.05 93.7168 370.283H126.533C126.533 370.283 126.86 365.287 122.975 364.204C117.783 362.756 111.461 361.691 109.107 359.618C107.94 358.591 107.379 355.696 107.379 355.696H93.6795V355.687Z" fill="#0A1930"/>
<path d="M117.53 362.813C117.53 362.813 113.356 362.44 111.862 364.812" stroke="#7DBBF1" stroke-width="0.8477" stroke-miterlimit="10" stroke-linecap="round" stroke-linejoin="round"/>
<path d="M113.767 361.702C113.767 361.702 109.593 361.329 108.099 363.701" stroke="#7DBBF1" stroke-width="0.8477" stroke-miterlimit="10" stroke-linecap="round" stroke-linejoin="round"/>
<path d="M74.5529 355.687C74.1326 362.065 75.2439 369.741 73.4416 370.283H51.6354C51.6354 370.283 51.3272 366.706 54.2316 363.737C55.427 362.523 58.238 361.122 59.5174 359.842C60.6754 358.675 60.8622 355.687 60.8622 355.687H74.5529Z" fill="#0A1930"/>
<path d="M61.4219 363.615C61.4219 363.615 58.6296 360.328 55.1182 362.98" stroke="#7DBBF1" stroke-width="0.8477" stroke-miterlimit="10" stroke-linecap="round" stroke-linejoin="round"/>
<path d="M64.8591 361.944C64.8591 361.944 60.6753 358.508 57.4814 361.197" stroke="#7DBBF1" stroke-width="0.8477" stroke-miterlimit="10" stroke-linecap="round" stroke-linejoin="round"/>
<path d="M117.493 178.21C118.446 184.094 118.128 190.379 118.427 190.07C119.212 189.23 128.56 184.635 129.307 184.252C132.725 182.497 135.442 182.599 137.338 182.693C137.964 182.721 139.85 182.581 139.85 182.581C139.85 182.581 141.326 182.226 142.363 182.693C143.408 183.169 143.698 183.982 142.736 184.308C141.877 184.598 140.261 184.841 140.261 184.841C140.261 184.841 143.605 184.775 146.238 184.561C147.228 184.486 147.34 185.831 147.34 185.831C147.34 185.831 147.76 185.765 147.966 185.719C149.311 185.42 149.824 187.437 149.292 187.596C148.395 187.857 147.779 187.932 147.779 187.932C148.115 188.063 148.713 188.997 147.863 189.249C146.939 189.519 144.473 190.014 144.473 190.014C145.061 190.014 145.547 191.144 145.202 191.266C143.838 191.761 139.206 192.909 138.543 192.975C137.955 193.031 134.929 193.003 133.584 192.788C132.519 192.629 130.259 192.106 130.259 192.106C130.259 192.106 115.131 204.452 112.889 203.892C111.227 203.472 108.024 201.483 107.501 198.513C106.968 195.534 103.382 177.837 103.382 177.837C104.774 168.918 116.055 169.301 117.493 178.21Z" fill="#F4A484"/>
<path d="M129.129 187.633C129.129 187.633 129.054 190.518 129.997 191.826" stroke="#E08D68" stroke-width="0.5651" stroke-miterlimit="10" stroke-linecap="round" stroke-linejoin="round"/>
<path d="M137.992 185.148C137.992 185.148 136.498 187.633 131.856 187.306C135.387 187.95 137.609 191.536 137.609 191.536" stroke="#E08D68" stroke-width="0.5651" stroke-miterlimit="10" stroke-linecap="round" stroke-linejoin="round"/>
<path d="M144.137 190.006L139.076 190.734" stroke="#E08D68" stroke-width="0.5651" stroke-miterlimit="10" stroke-linecap="round" stroke-linejoin="round"/>
<path d="M147.013 187.849L139.393 188.736" stroke="#E08D68" stroke-width="0.5651" stroke-miterlimit="10" stroke-linecap="round" stroke-linejoin="round"/>
<path d="M146.705 185.831L139.785 186.485" stroke="#E08D68" stroke-width="0.5651" stroke-miterlimit="10" stroke-linecap="round" stroke-linejoin="round"/>
<path d="M103.439 115.38C103.439 115.38 104.84 116.846 105.185 120.087C105.522 123.337 102.991 127.642 102.991 127.642L103.439 115.38Z" fill="#24292D"/>
<path d="M112.937 221.982C114.002 232.05 108.268 357.04 108.268 357.04H93.6429C93.6429 357.04 89.0576 268.125 89.6739 255.154C90.2903 242.182 87.4887 229.874 88.3105 221.982C89.1416 214.091 111.153 205.004 112.937 221.982Z" fill="#B354FE"/>
<path d="M93.3824 222.346C93.3917 267.536 75.0689 357.03 75.0689 357.03H59.9961C59.9961 357.03 67.5886 255.219 67.8687 242.2C68.0742 232.852 69.1295 226.343 70.0447 218.433C71.6136 205.069 93.373 205.331 93.3824 222.346Z" fill="#B354FE"/>
<path opacity="0.36" d="M113.029 231.415C112.366 231.041 111.6 230.611 110.834 230.135C108.658 228.818 108.014 229.108 93.2304 230.033C93.0436 230.042 92.8475 230.051 92.6514 230.061C91.1945 230.145 89.7563 230.154 88.3648 230.107C79.0354 229.724 71.4242 226.465 69.2109 225.419C69.4818 223.14 69.7806 220.852 70.0514 218.434C71.4056 206.91 87.7858 205.518 92.2498 216.276C98.871 211.177 111.6 209.226 112.935 221.973C113.066 223.309 113.094 226.633 113.029 231.415Z" fill="#B354FE"/>
<path d="M108.353 150.064C119.074 160.131 118.476 186.906 118.476 186.906C118.476 186.906 108.605 193.471 102.731 190.912C102.731 190.912 98.2853 163.456 100.629 154.986C102.068 149.812 106.354 148.196 108.353 150.064Z" fill="#021946"/>
<path opacity="0.36" d="M115.796 175.512C115.656 180.648 115.693 185.476 115.394 188.67C112.004 190.398 106.531 192.564 102.731 190.911C102.731 190.911 98.2853 163.455 100.629 154.994C101.264 152.734 102.432 151.156 103.721 150.259L108.353 150.082C108.353 150.082 108.362 150.091 108.371 150.101C108.894 150.633 116.319 156.713 115.796 175.512Z" fill="#021946"/>
<path d="M80.8392 146.011C80.8392 146.011 65.1127 148.598 64.6364 151.465C64.1601 154.332 70.137 195.694 70.137 205.406C70.137 215.119 69.007 224.308 69.007 224.308C69.007 224.308 81.605 227.838 93.6428 227.614C105.671 227.39 113.348 225.597 113.348 225.597C113.348 225.597 112.647 213.652 112.414 205.714C112.171 197.767 114.048 174.597 114.067 166.109C114.085 158.721 110.611 152.698 108.351 150.074C106.484 147.907 96.6592 145.619 96.6592 145.619L80.8392 146.011Z" fill="#021946"/>
<path opacity="0.36" d="M73.3398 202.184C71.9856 204.622 70.921 206.658 70.0899 208.348C70.1179 207.377 70.1366 206.387 70.1366 205.397C70.1366 198.944 67.4843 178.51 65.8594 164.698L78.0185 157.647C79.5221 162.364 79.5221 191.034 73.3398 202.184Z" fill="#021946"/>
<path d="M82.278 140.212L80.8491 146.049C80.8491 146.049 87.0221 156.34 94.3157 155.313C101.609 154.286 96.6691 145.619 96.6691 145.619L96.9586 141.753L83.5107 133.787L82.278 140.212Z" fill="#E08D68"/>
<path d="M104.15 118.172C104.533 120.105 104.365 126.418 103.991 131.293C103.627 136.009 102.357 142.845 99.6764 143.443C96.9962 144.041 85.4908 141.818 84.9585 135.206C82.9973 133.656 75.5543 124.541 78.1692 120.021C82.8292 111.999 102.926 111.943 104.15 118.172Z" fill="#F4A484"/>
<path d="M94.7538 129.285C95.1974 129.285 95.557 128.75 95.557 128.09C95.557 127.43 95.1974 126.895 94.7538 126.895C94.3103 126.895 93.9507 127.43 93.9507 128.09C93.9507 128.75 94.3103 129.285 94.7538 129.285Z" fill="#24292D"/>
<path d="M102.711 127.754C102.711 128.417 102.356 128.949 101.908 128.949C101.469 128.949 101.104 128.417 101.104 127.754C101.104 127.091 101.459 126.559 101.908 126.559C102.347 126.559 102.711 127.1 102.711 127.754Z" fill="#24292D"/>
<path d="M96.0961 125.175C95.3304 124.97 94.6206 124.83 93.9482 124.932C93.2665 125.007 92.6688 125.371 92.0244 125.848C92.1738 125.483 92.3886 125.119 92.7155 124.858C93.033 124.578 93.4439 124.409 93.8642 124.353C94.714 124.241 95.5638 124.578 96.0961 125.175Z" fill="#24292D"/>
<path d="M99.6484 124.851C100.181 124.253 101.031 123.917 101.88 124.029C102.301 124.085 102.721 124.263 103.029 124.533C103.365 124.786 103.58 125.159 103.72 125.523C103.076 125.056 102.478 124.683 101.796 124.608C101.124 124.505 100.414 124.646 99.6484 124.851Z" fill="#24292D"/>
<path d="M99.0596 129.509C99.1717 130.2 99.5453 130.816 99.8815 131.433L100.937 133.282C101.114 133.599 101.292 133.907 101.441 134.262C101.506 134.44 101.59 134.617 101.6 134.888C101.59 134.963 101.6 135.037 101.553 135.149C101.516 135.252 101.478 135.28 101.432 135.346C101.348 135.448 101.254 135.532 101.161 135.579C100.797 135.812 100.442 135.906 100.078 135.981C99.7133 136.046 99.3491 136.083 98.9849 136.074L98.9756 136.009C99.6106 135.691 100.311 135.42 100.769 135.047C100.881 134.953 100.927 134.869 100.899 134.897C100.89 134.813 100.853 134.645 100.806 134.496C100.703 134.178 100.573 133.851 100.442 133.534L99.5733 131.582C99.3211 130.919 99.0223 130.247 98.9943 129.509H99.0596Z" fill="#E5744C"/>
<path d="M101.581 137.12C101.581 137.12 99.414 136.915 97.2661 137.989C97.2661 137.989 100.955 138.521 101.291 138.157C101.618 137.793 101.581 137.12 101.581 137.12Z" fill="white"/>
<path d="M104.504 119.844C103.916 121.095 99.9185 122.926 92.5782 122.524C92.5782 122.524 96.2484 121.515 97.0609 118.639C97.0609 118.639 94.1005 123.168 88.3384 123.056C88.3384 123.056 88.8427 127.1 86.3586 131.256C86.3586 131.256 84.7056 133.441 84.9484 135.206C85.1819 136.859 83.4262 139.81 82.2682 140.483C81.5678 135.253 76.0952 125.027 77.1598 119.265C78.2431 113.437 83.4916 113.335 83.4916 113.335C85.8823 109.534 94.7262 107.965 100.488 111.112C104.765 113.437 105.569 117.556 104.504 119.844Z" fill="#24292D"/>
<path d="M86.9646 129.462C85.7412 126.446 81.6041 126.688 81.5761 129.238C81.5387 133.422 84.0602 134.654 84.9567 135.205C85.8439 135.747 87.7024 131.292 86.9646 129.462Z" fill="#F4A484"/>
<path d="M61.7679 178.369C60.8153 184.253 60.0215 190.043 59.7227 189.725C58.9382 188.885 45.3689 185.187 44.5284 184.682C40.5594 182.31 37.7858 182.684 36.0395 182.684L33.5273 182.572C33.5273 182.572 32.0518 182.217 31.0152 182.684C29.9692 183.16 29.6797 183.973 30.6416 184.3C31.5008 184.589 33.1164 184.832 33.1164 184.832C33.1164 184.832 29.7731 184.767 27.1396 184.552C26.1496 184.477 26.0376 185.822 26.0376 185.822C26.0376 185.822 25.6173 185.756 25.4119 185.71C24.0671 185.411 23.5535 187.428 24.0858 187.587C24.9823 187.848 25.5987 187.923 25.5987 187.923C25.2625 188.054 24.6648 188.988 25.5146 189.24C26.4392 189.511 28.9046 190.006 28.9046 190.006C28.3163 190.006 27.8306 191.136 28.1762 191.257C29.5396 191.752 34.1717 192.901 34.8347 192.966C35.4231 193.022 38.4489 192.994 39.7937 192.779C40.8583 192.62 43.1089 192.527 43.1089 192.527C43.1089 192.527 62.3095 201.829 64.6069 202.118C66.6894 202.38 70.1541 201.642 71.2655 198.504C72.2741 195.646 76.4859 178.276 76.4859 178.276C75.085 169.367 63.1967 169.46 61.7679 178.369Z" fill="#F4A484"/>
<path d="M43.3516 192.32C43.3516 192.32 44.2574 191.078 44.4816 189.351" stroke="#E08D68" stroke-width="0.5651" stroke-miterlimit="10" stroke-linecap="round" stroke-linejoin="round"/>
<path d="M35.3745 185.148C35.3745 185.148 36.8687 187.633 41.5101 187.306C37.98 187.95 35.7574 191.536 35.7574 191.536" stroke="#E08D68" stroke-width="0.5651" stroke-miterlimit="10" stroke-linecap="round" stroke-linejoin="round"/>
<path d="M29.2334 190.007L34.295 190.735" stroke="#E08D68" stroke-width="0.5651" stroke-miterlimit="10" stroke-linecap="round" stroke-linejoin="round"/>
<path d="M26.3564 187.849L33.9863 188.736" stroke="#E08D68" stroke-width="0.5651" stroke-miterlimit="10" stroke-linecap="round" stroke-linejoin="round"/>
<path d="M26.6733 185.832L33.5841 186.486" stroke="#E08D68" stroke-width="0.5651" stroke-miterlimit="10" stroke-linecap="round" stroke-linejoin="round"/>
<path d="M64.6093 151.435C59.3982 161.839 59.2114 185.326 59.2114 185.326C59.2114 185.326 69.4935 190.677 75.6104 188.193C75.6104 188.193 79.5794 165.836 78.0198 157.636C77.0766 152.631 67.1494 146.374 64.6093 151.435Z" fill="#021946"/>
<path d="M285.078 355.686C284.732 360.131 286.198 370.049 285.04 370.282H252.224C252.224 370.282 251.897 365.286 255.782 364.203C260.974 362.755 267.296 361.69 269.65 359.617C270.817 358.59 271.377 355.695 271.377 355.695H285.078V355.686Z" fill="#B354FE"/>
<path d="M261.226 362.812C261.226 362.812 265.4 362.439 266.894 364.811" stroke="#7DBBF1" stroke-width="0.8477" stroke-miterlimit="10" stroke-linecap="round" stroke-linejoin="round"/>
<path d="M264.991 361.701C264.991 361.701 269.166 361.328 270.66 363.7" stroke="#7DBBF1" stroke-width="0.8477" stroke-miterlimit="10" stroke-linecap="round" stroke-linejoin="round"/>
<path d="M304.206 355.686C304.626 362.064 303.514 369.74 305.317 370.282H327.123C327.123 370.282 327.431 366.705 324.527 363.736C323.331 362.522 320.52 361.121 319.241 359.841C318.083 358.674 317.896 355.686 317.896 355.686H304.206Z" fill="#B354FE"/>
<path d="M317.336 363.614C317.336 363.614 320.128 360.327 323.64 362.979" stroke="#7DBBF1" stroke-width="0.8477" stroke-miterlimit="10" stroke-linecap="round" stroke-linejoin="round"/>
<path d="M313.899 361.943C313.899 361.943 318.083 358.507 321.277 361.196" stroke="#7DBBF1" stroke-width="0.8477" stroke-miterlimit="10" stroke-linecap="round" stroke-linejoin="round"/>
<path d="M264.803 221.591C263.739 231.659 270.799 357.032 270.799 357.032H285.423C285.423 357.032 290.009 268.117 289.392 255.146C288.776 242.174 291.578 229.866 290.756 221.974C289.934 214.092 266.596 204.613 264.803 221.591Z" fill="#021946"/>
<path d="M285.697 222.348C285.679 267.538 304.011 357.032 304.011 357.032H319.084C319.084 357.032 311.491 255.221 311.211 242.202C311.005 232.854 309.95 226.345 309.035 218.435C307.466 205.071 285.707 205.333 285.697 222.348Z" fill="#021946"/>
<path opacity="0.36" d="M309.919 225.802C307.388 226.923 299.871 229.846 290.718 229.874C289.878 229.874 289.009 229.855 288.141 229.799C287.347 229.752 286.581 229.706 285.825 229.668C274.786 229.089 268.707 229.341 266.792 229.864C266.045 230.061 265.345 230.696 264.775 231.424C264.663 226.428 264.644 222.944 264.794 221.59C266.148 208.731 279.848 211.047 286.777 216.332C287.879 213.643 289.71 211.71 291.876 210.496L302.308 209.739C305.745 211.047 308.49 213.988 309.013 218.424C309.321 220.983 309.639 223.393 309.919 225.802Z" fill="#021946"/>
<path d="M271.409 150.066C260.688 160.133 261.285 186.908 261.285 186.908C261.285 186.908 271.156 193.473 277.031 190.914C277.031 190.914 281.476 163.458 279.132 154.988C277.694 149.814 273.398 148.198 271.409 150.066Z" fill="#1B84C1"/>
<path d="M301.394 146.012C301.394 146.012 316.364 150.775 316.849 153.642C317.326 156.509 309.005 195.228 309.005 204.94C309.005 214.653 310.06 224.309 310.06 224.309C310.06 224.309 297.462 227.839 285.424 227.615C273.396 227.391 264.384 225.215 264.384 225.215C264.384 225.215 265.037 213.336 265.28 205.389C265.523 197.441 265.691 174.598 265.673 166.109C265.654 158.722 269.128 152.699 271.388 150.075C273.256 147.908 285.564 145.62 285.564 145.62L301.394 146.012Z" fill="#1B84C1"/>
<path opacity="0.36" d="M309.003 204.931C309.003 207.63 309.087 210.329 309.199 212.804C306.799 208.088 302.298 203.745 300.01 203.017C297.096 202.092 272.47 192.025 270.536 192.426C269.5 192.641 267.315 192.352 265.512 192.034C265.559 189.195 265.578 186.207 265.606 183.274L278.484 147.199C282.051 146.255 285.581 145.602 285.581 145.602C284.526 146.442 283.06 151.252 281.986 153.633C280.903 156.014 274.991 181.024 274.991 181.024L295.107 183.022C297.619 163.831 303.036 156.098 303.036 156.098L315.008 166.203C312.673 179.24 309.003 198.487 309.003 204.931Z" fill="#1B84C1"/>
<path d="M299.965 140.213L301.394 146.05C301.394 146.05 295.221 156.341 287.927 155.314C280.634 154.287 285.574 145.62 285.574 145.62L285.285 141.754L298.732 133.788L299.965 140.213Z" fill="#E08D68"/>
<path d="M278.617 118.238C278.234 120.171 277.87 126.419 278.253 131.294C278.617 136.01 279.887 142.836 282.567 143.434C285.248 144.032 296.753 141.818 297.285 135.207C299.247 133.656 306.69 124.542 304.075 120.022C299.405 112 279.84 112.018 278.617 118.238Z" fill="#F4A484"/>
<path d="M287.491 129.284C287.934 129.284 288.294 128.749 288.294 128.089C288.294 127.429 287.934 126.894 287.491 126.894C287.047 126.894 286.688 127.429 286.688 128.089C286.688 128.749 287.047 129.284 287.491 129.284Z" fill="#24292D"/>
<path d="M280.495 128.819C280.938 128.819 281.298 128.284 281.298 127.624C281.298 126.964 280.938 126.429 280.495 126.429C280.051 126.429 279.691 126.964 279.691 127.624C279.691 128.284 280.051 128.819 280.495 128.819Z" fill="#24292D"/>
<path d="M286.077 125.673C286.497 124.925 287.366 124.44 288.281 124.459C288.739 124.477 289.196 124.599 289.561 124.86C289.934 125.094 290.214 125.448 290.392 125.831C289.981 125.682 289.645 125.514 289.29 125.42C288.944 125.308 288.608 125.262 288.262 125.252C287.571 125.215 286.88 125.411 286.077 125.673Z" fill="#24292D"/>
<path d="M283.149 125.195C282.346 124.943 281.646 124.746 280.964 124.774C280.628 124.774 280.282 124.83 279.937 124.943C279.582 125.036 279.246 125.204 278.835 125.353C279.012 124.971 279.293 124.625 279.666 124.382C280.03 124.121 280.488 123.999 280.946 123.981C281.87 123.971 282.739 124.448 283.149 125.195Z" fill="#24292D"/>
<path d="M283.251 129.521C283.232 130.277 282.942 130.977 282.69 131.668L281.831 133.695C281.7 134.031 281.57 134.377 281.467 134.704C281.411 134.862 281.374 135.04 281.364 135.152C281.355 135.18 281.364 135.199 281.355 135.208C281.355 135.208 281.336 135.171 281.355 135.208C281.364 135.236 281.411 135.283 281.458 135.329C281.896 135.721 282.625 136.011 283.279 136.357L283.26 136.422C282.877 136.441 282.504 136.394 282.13 136.31C281.756 136.226 281.383 136.114 281.009 135.852C280.916 135.778 280.823 135.693 280.748 135.563C280.71 135.525 280.664 135.404 280.645 135.311C280.636 135.227 280.636 135.152 280.636 135.086C280.654 134.834 280.738 134.657 280.804 134.47C280.953 134.106 281.131 133.788 281.308 133.461L282.354 131.528C282.681 130.884 283.054 130.24 283.167 129.521H283.251Z" fill="#E08D68"/>
<path d="M280.447 137.989C280.447 137.989 282.558 137.214 284.706 138.288C284.706 138.288 281.017 138.82 280.681 138.456C280.335 138.083 280.447 137.989 280.447 137.989Z" fill="white"/>
<path d="M278.207 120.731C278.795 121.983 289.348 121.899 295.11 121.787C295.11 121.787 293.392 127.1 295.876 131.256C295.876 131.256 297.529 133.441 297.286 135.206C297.052 136.859 299.779 140.707 299.938 139.372C300.442 135.235 306.176 123.468 304.626 117.818C303.309 113.036 300.312 113.26 300.312 113.26C297.921 109.459 291.972 111.505 280.018 108.871C275.265 107.825 277.142 118.453 278.207 120.731Z" fill="#24292D"/>
<path d="M295.279 129.463C296.502 126.447 300.639 126.689 300.667 129.239C300.704 133.423 298.183 134.655 297.286 135.206C296.39 135.748 294.531 131.293 295.279 129.463Z" fill="#F4A484"/>
<path d="M264.216 189.717C266.018 190.352 266.532 190.501 267.27 190.52C269.063 190.567 270.249 190.427 270.249 190.427C270.249 190.427 296.958 199.794 299.489 199.644C301.366 199.523 305.456 198.318 307.221 195.33C308.902 192.472 312.638 181.004 314.02 175.914C316.616 166.351 303.831 164.838 300.479 174.14C298.265 180.294 297.668 186.682 297.406 186.29C296.734 185.225 274.535 182.965 274.078 182.162C273.191 180.574 269.997 179.855 269.091 179.818C268.092 179.771 267.662 179.594 267.26 179.51C266.037 179.239 264.972 180.434 266.158 180.967C267.074 181.377 268.727 182.05 268.727 182.05C268.727 182.05 263.011 180.014 261.919 179.594C260.817 179.183 259.565 180.789 261.069 181.648C262.572 182.507 262.871 182.638 262.871 182.638C262.871 182.638 261.835 181.938 260.826 182.181C260.154 182.349 260.546 184.244 261.293 184.469C261.377 184.497 261.685 184.581 261.685 184.581C261.685 184.581 260.238 186.047 262.274 186.775C262.442 186.831 262.619 186.897 262.619 186.897C262.619 186.897 261.424 187.915 262.358 188.54C263.31 189.147 264.216 189.717 264.216 189.717Z" fill="#F4A484"/>
<path d="M282.642 149.701C281.979 152.428 280.83 151.765 280.475 152.559C280.102 153.4 272.957 180.379 272.696 181.612C271.846 185.6 266.812 188.719 263.908 187.402C260.742 185.964 259.65 181.537 260.238 179.025C260.817 176.55 273.686 150.495 273.686 150.495C273.686 150.495 274.657 142.38 275.171 142.09C276.59 141.287 279.242 140.353 279.579 140.279C280.54 140.082 285.051 140.307 285.023 140.279C284.995 140.251 284.958 141.324 284.22 141.801C283.912 141.997 280.372 142.38 280.372 142.38C280.372 142.38 283.632 142.548 283.772 142.875C283.921 143.192 284.304 146.881 284.155 147.292C283.678 148.674 282.716 149.431 282.642 149.701Z" fill="#F4A484"/>
<path d="M277.42 143.005L278.98 142.641" stroke="#E08D68" stroke-width="0.5651" stroke-miterlimit="10" stroke-linecap="round" stroke-linejoin="round"/>
<path d="M277.73 144.406C277.73 144.406 282.325 144.462 282.465 144.584C282.605 144.696 282.922 146.732 283.268 147.049C283.613 147.367 283.782 147.329 283.782 147.329" stroke="#E08D68" stroke-width="0.5651" stroke-miterlimit="10" stroke-linecap="round" stroke-linejoin="round"/>
<path d="M277.011 146.218C277.011 146.218 280.765 146.629 280.989 146.731C281.223 146.834 281.633 148.935 282.353 148.973C283.081 149.01 283.258 148.179 283.258 148.179" stroke="#E08D68" stroke-width="0.5651" stroke-miterlimit="10" stroke-linecap="round" stroke-linejoin="round"/>
<path d="M277.236 148.058L280.29 148.525" stroke="#E08D68" stroke-width="0.5651" stroke-miterlimit="10" stroke-linecap="round" stroke-linejoin="round"/>
<path d="M279.251 149.496C278.522 149.561 278.868 150.841 279.251 150.906C279.633 150.971 280.904 151.046 281.184 150.906C281.464 150.766 281.968 150.028 281.978 149.458C281.978 149.188 281.567 148.058 281.567 148.058" stroke="#E08D68" stroke-width="0.5651" stroke-miterlimit="10" stroke-linecap="round" stroke-linejoin="round"/>
<path d="M280.989 151.998C280.989 151.998 279.308 152.979 276.759 152.521" stroke="#E08D68" stroke-width="0.5651" stroke-miterlimit="10" stroke-linecap="round" stroke-linejoin="round"/>
<path d="M280.137 153.054C280.137 153.054 279.39 153.54 277.737 152.933" stroke="#E08D68" stroke-width="0.5651" stroke-miterlimit="10" stroke-linecap="round" stroke-linejoin="round"/>
<path d="M280.045 140.231C280.045 140.231 284.808 140.287 285.023 140.287C285.237 140.287 284.826 141.651 284.219 141.81C283.612 141.959 280.372 142.389 280.372 142.389C280.372 142.389 283.715 142.613 283.771 142.884C283.827 143.155 284.023 144.593 284.023 144.593" stroke="#E08D68" stroke-width="0.5651" stroke-miterlimit="10" stroke-linecap="round" stroke-linejoin="round"/>
<path d="M316.877 153.611C321.789 158.963 311.003 188.184 311.003 188.184C311.003 188.184 302.617 187.605 296.5 185.13C296.5 185.13 301.197 159.682 303.028 156.105C305.353 151.566 313.048 149.437 316.877 153.611Z" fill="#1B84C1"/>
<path d="M272.846 181.032C272.117 184.077 269.493 188.41 264.88 187.635C261.06 186.99 260.313 182.153 260.313 182.153" stroke="#E08D68" stroke-width="0.5651" stroke-miterlimit="10" stroke-linecap="round" stroke-linejoin="round"/>
<path d="M64.4632 94.3497C81.7827 87.0005 89.8651 67.0026 82.5159 49.6832C75.1667 32.3637 55.1688 24.2813 37.8493 31.6305C20.5299 38.9798 12.4475 58.9777 19.7967 76.2971C27.1459 93.6165 47.1438 101.699 64.4632 94.3497Z" fill="white"/>
<path d="M39.5733 62.991C39.5733 65.3911 37.6308 67.3335 35.2307 67.3335C32.8307 67.3335 30.8882 65.3911 30.8882 62.991C30.8882 60.5909 32.8307 58.6484 35.2307 58.6484C37.6308 58.6484 39.5733 60.5909 39.5733 62.991Z" fill="#48BE97"/>
<path d="M55.5152 62.991C55.5152 65.3911 53.5727 67.3335 51.1726 67.3335C48.7726 67.3335 46.8301 65.3911 46.8301 62.991C46.8301 60.5909 48.7726 58.6484 51.1726 58.6484C53.5727 58.6484 55.5152 60.5909 55.5152 62.991Z" fill="#48BE97"/>
<path d="M71.4473 62.991C71.4473 65.3911 69.5048 67.3336 67.1048 67.3336C64.7047 67.3336 62.7622 65.3911 62.7622 62.991C62.7622 60.5909 64.7047 58.6485 67.1048 58.6485C69.5048 58.6391 71.4473 60.5909 71.4473 62.991Z" fill="#48BE97"/>
<path d="M49.6782 94.5266C49.6782 94.5266 53.1803 103.118 67.1045 103.585C67.1045 103.585 61.1369 99.3267 61.0903 92.2666L49.6782 94.5266Z" fill="white"/>
<path d="M344.166 122.931C362.494 118.675 373.902 100.367 369.646 82.0389C365.39 63.711 347.082 52.3034 328.754 56.5594C310.426 60.8154 299.019 79.1233 303.275 97.4513C307.531 115.779 325.838 127.187 344.166 122.931Z" fill="white"/>
<path d="M348.044 89.7381C348.044 92.1381 349.986 94.0806 352.387 94.0806C354.787 94.0806 356.729 92.1381 356.729 89.7381C356.729 87.338 354.787 85.3955 352.387 85.3955C349.986 85.3955 348.044 87.338 348.044 89.7381Z" fill="#48BE97"/>
<path d="M332.111 89.7381C332.111 92.1381 334.054 94.0806 336.454 94.0806C338.854 94.0806 340.796 92.1381 340.796 89.7381C340.796 87.338 338.854 85.3955 336.454 85.3955C334.054 85.3955 332.111 87.338 332.111 89.7381Z" fill="#48BE97"/>
<path d="M316.179 89.7381C316.179 92.1381 318.122 94.0806 320.522 94.0806C322.922 94.0806 324.864 92.1381 324.864 89.7381C324.864 87.338 322.922 85.3955 320.522 85.3955C318.122 85.3955 316.179 87.338 316.179 89.7381Z" fill="#48BE97"/>
<path d="M337.948 121.273C337.948 121.273 334.446 129.864 320.521 130.331C320.521 130.331 326.489 126.073 326.536 119.013L337.948 121.273Z" fill="white"/>
<path d="M140.89 370.283C140.89 370.283 141.413 357.255 129.123 347.543C129.123 347.543 146.288 349.448 147.689 370.283H140.89Z" fill="#48BE97"/>
<path d="M142.701 370.283C142.701 370.283 141.085 348.692 160.333 344.237C160.333 344.237 149.266 352.026 148.164 370.283H142.701Z" fill="#36A871"/>
<path d="M142.701 370.282C142.701 370.282 147.072 351.034 165.301 351.716C165.301 351.716 151.508 359.458 150.705 370.282H142.701Z" fill="#48BE97"/>
<path d="M235.165 370.282C235.165 370.282 232.718 362.138 243.598 357.721C243.598 357.721 231.299 355.349 230.299 370.282H235.165Z" fill="#48BE97"/>
<path d="M233.868 370.283C233.868 370.283 231.599 361.196 236.306 349.887C236.306 349.887 227.592 354.164 229.955 370.283H233.868Z" fill="#36A871"/>
<path d="M233.867 370.281C233.867 370.281 233.167 359.878 220.111 360.373C220.111 360.373 229.459 363.398 228.133 370.281H233.867Z" fill="#48BE97"/>
</svg>
