<svg width="26" height="22" viewBox="0 0 26 22" fill="none" xmlns="http://www.w3.org/2000/svg">
<path d="M23.507 9.99095H21.9382L13.7901 1.84284C13.8751 1.67196 13.9233 1.47953 13.9233 1.27602C13.9233 0.572416 13.3509 0 12.6473 0C11.9437 0 11.3713 0.572416 11.3713 1.27602C11.3713 1.47953 11.4194 1.67196 11.5045 1.84284L3.35641 9.99095H1.78756C0.844443 9.99095 0.0771484 10.7582 0.0771484 11.7014V19.5204C0.0771484 20.4635 0.844443 21.2308 1.78756 21.2308H23.507C24.4501 21.2308 25.2174 20.4635 25.2174 19.5204V11.7014C25.2174 10.7582 24.4501 9.99095 23.507 9.99095ZM12.6473 0.81448C12.9018 0.81448 13.1088 1.02152 13.1088 1.27602C13.1088 1.53052 12.9018 1.73756 12.6473 1.73756C12.3928 1.73756 12.1857 1.53052 12.1857 1.27602C12.1857 1.02152 12.3928 0.81448 12.6473 0.81448ZM12.0805 2.41879C12.2513 2.50387 12.4438 2.55204 12.6473 2.55204C12.8508 2.55204 13.0432 2.50387 13.2141 2.41879L20.7863 9.99095H4.5083L12.0805 2.41879ZM24.4029 19.5204C24.4029 20.0144 24.001 20.4163 23.507 20.4163H1.78756C1.29355 20.4163 0.891628 20.0144 0.891628 19.5204V11.7014C0.891628 11.2073 1.29355 10.8054 1.78756 10.8054H23.507C24.001 10.8054 24.4029 11.2073 24.4029 11.7014V19.5204Z" fill="white"/>
<path d="M3.52388 13.8457C3.90349 13.8457 4.24323 14.0861 4.36926 14.4439C4.44397 14.656 4.67664 14.7673 4.88863 14.6927C5.10077 14.618 5.21214 14.3855 5.13742 14.1733C4.89682 13.4902 4.24839 13.0312 3.52388 13.0312C2.58077 13.0312 1.81348 13.7985 1.81348 14.7417V16.4792C1.81348 17.4223 2.58077 18.1896 3.52388 18.1896C4.24752 18.1896 4.89574 17.7315 5.13682 17.0495C5.21176 16.8374 5.10066 16.6048 4.88863 16.5298C4.67659 16.4549 4.44392 16.5659 4.36893 16.778C4.24263 17.1351 3.90305 17.3751 3.52388 17.3751C3.02987 17.3751 2.62796 16.9732 2.62796 16.4792V14.7417C2.62796 14.2476 3.02987 13.8457 3.52388 13.8457Z" fill="white"/>
<path d="M8.30672 17.3751H6.54202V13.4385C6.54202 13.2135 6.35968 13.0312 6.13478 13.0312C5.90987 13.0312 5.72754 13.2135 5.72754 13.4385V17.7824C5.72754 18.0073 5.90987 18.1896 6.13478 18.1896H8.30672C8.53163 18.1896 8.71396 18.0073 8.71396 17.7824C8.71396 17.5574 8.53163 17.3751 8.30672 17.3751Z" fill="white"/>
<path d="M10.476 13.0312C9.53292 13.0312 8.76562 13.7985 8.76562 14.7417V16.4792C8.76562 17.4223 9.53292 18.1896 10.476 18.1896C11.4191 18.1896 12.1864 17.4223 12.1864 16.4792V14.7417C12.1864 13.7985 11.4191 13.0312 10.476 13.0312ZM11.372 16.4792C11.372 16.9732 10.97 17.3751 10.476 17.3751C9.98202 17.3751 9.58011 16.9732 9.58011 16.4792V14.7417C9.58011 14.2476 9.98202 13.8457 10.476 13.8457C10.97 13.8457 11.372 14.2476 11.372 14.7417V16.4792Z" fill="white"/>
<path d="M14.3823 15.2032C13.8966 15.2032 13.4864 14.8923 13.4864 14.5245C13.4864 14.1566 13.8966 13.8457 14.3823 13.8457C14.8079 13.8457 15.1869 14.086 15.2639 14.4046C15.3168 14.6231 15.5367 14.7575 15.7554 14.7047C15.974 14.6519 16.1084 14.4319 16.0556 14.2132C15.8902 13.5284 15.1864 13.0312 14.3823 13.0312C13.4392 13.0312 12.6719 13.7011 12.6719 14.5245C12.6719 15.3478 13.4392 16.0177 14.3823 16.0177C14.8679 16.0177 15.2782 16.3285 15.2782 16.6964C15.2782 17.0643 14.8679 17.3751 14.3823 17.3751C13.9566 17.3751 13.5776 17.1349 13.5006 16.8163C13.4478 16.5976 13.2277 16.4628 13.0091 16.5161C12.7905 16.569 12.6561 16.789 12.709 17.0076C12.8744 17.6925 13.5782 18.1896 14.3823 18.1896C15.3254 18.1896 16.0927 17.5197 16.0927 16.6964C16.0927 15.8731 15.3254 15.2032 14.3823 15.2032Z" fill="white"/>
<path d="M19.1641 13.8457C19.3891 13.8457 19.5714 13.6634 19.5714 13.4385C19.5714 13.2135 19.3891 13.0312 19.1641 13.0312H16.9922C16.7673 13.0312 16.585 13.2135 16.585 13.4385V17.7824C16.585 18.0073 16.7673 18.1896 16.9922 18.1896H19.1641C19.3891 18.1896 19.5714 18.0073 19.5714 17.7824C19.5714 17.5574 19.3891 17.3751 19.1641 17.3751H17.3994V16.0177H18.7298C18.9547 16.0177 19.137 15.8354 19.137 15.6104C19.137 15.3855 18.9547 15.2032 18.7298 15.2032H17.3994V13.8457H19.1641Z" fill="white"/>
<path d="M20.8992 13.0312H20.4649C20.24 13.0312 20.0576 13.2135 20.0576 13.4385V17.7824C20.0576 18.0073 20.24 18.1896 20.4649 18.1896H20.8992C22.3214 18.1896 23.4784 17.0326 23.4784 15.6104C23.4784 14.1883 22.3214 13.0312 20.8992 13.0312ZM20.8992 17.3751H20.8721V13.8457H20.8992C21.8723 13.8457 22.664 14.6373 22.664 15.6104C22.664 16.5835 21.8723 17.3751 20.8992 17.3751Z" fill="white"/>
</svg>
