<svg width="21" height="21" viewBox="0 0 21 21" fill="none" xmlns="http://www.w3.org/2000/svg">
<path d="M5.49016 11.9803C6.28672 11.9803 6.93247 11.3346 6.93247 10.538C6.93247 9.74145 6.28672 9.0957 5.49016 9.0957C4.69359 9.0957 4.04785 9.74145 4.04785 10.538C4.04785 11.3346 4.69359 11.9803 5.49016 11.9803Z" fill="white"/>
<path d="M15.5859 11.9803C16.3824 11.9803 17.0282 11.3346 17.0282 10.538C17.0282 9.74145 16.3824 9.0957 15.5859 9.0957C14.7893 9.0957 14.1436 9.74145 14.1436 10.538C14.1436 11.3346 14.7893 11.9803 15.5859 11.9803Z" fill="white"/>
<path d="M10.538 11.9803C11.3346 11.9803 11.9803 11.3346 11.9803 10.538C11.9803 9.74145 11.3346 9.0957 10.538 9.0957C9.74145 9.0957 9.0957 9.74145 9.0957 10.538C9.0957 11.3346 9.74145 11.9803 10.538 11.9803Z" fill="white"/>
<path d="M10.5385 20.6337C8.54171 20.6337 6.58972 20.0416 4.92942 18.9322C3.26911 17.8228 1.97507 16.246 1.21091 14.4012C0.446757 12.5564 0.24682 10.5264 0.636382 8.5679C1.02594 6.60944 1.98751 4.81048 3.39948 3.39851C4.81145 1.98653 6.61042 1.02497 8.56888 0.635406C10.5273 0.245843 12.5573 0.445781 14.4022 1.20993C16.247 1.97409 17.8238 3.26814 18.9332 4.92844C20.0426 6.58875 20.6347 8.54073 20.6347 10.5376C20.6317 13.2143 19.567 15.7806 17.6743 17.6733C15.7815 19.566 13.2153 20.6307 10.5385 20.6337ZM10.5385 1.88372C8.82697 1.88372 7.15384 2.39126 5.73072 3.34215C4.3076 4.29305 3.19842 5.6446 2.54343 7.22588C1.88844 8.80717 1.71707 10.5472 2.05098 12.2258C2.38489 13.9045 3.20909 15.4465 4.41935 16.6568C5.62961 17.867 7.17158 18.6912 8.85026 19.0251C10.5289 19.359 12.2689 19.1877 13.8502 18.5327C15.4315 17.8777 16.7831 16.7685 17.7339 15.3454C18.6848 13.9223 19.1924 12.2491 19.1924 10.5376C19.1898 8.24323 18.2772 6.0436 16.6548 4.42126C15.0325 2.79891 12.8329 1.88633 10.5385 1.88372Z" fill="white"/>
</svg>
