<svg width="48" height="48" viewBox="0 0 48 48" fill="none" xmlns="http://www.w3.org/2000/svg">
<rect width="48" height="48" rx="24" fill="#FCB045"/>
<path d="M35.6469 20.2095H32.7663L24.8368 14.2624C25.1046 14.0247 25.277 13.6816 25.277 13.2962C25.277 12.5816 24.6955 12 23.9808 12C23.2662 12 22.6846 12.5816 22.6846 13.2962C22.6846 13.6816 22.857 14.0247 23.1249 14.2624L15.1954 20.2095H12.3147C11.1234 20.2095 10.1543 21.1786 10.1543 22.3699V30.1473C10.1543 31.3385 11.1234 32.3077 12.3147 32.3077H35.6469C36.8382 32.3077 37.8073 31.3385 37.8073 30.1473V22.3699C37.8073 21.1786 36.8382 20.2095 35.6469 20.2095ZM23.9808 12.8642C24.2189 12.8642 24.4129 13.0582 24.4129 13.2962C24.4129 13.5343 24.2189 13.7283 23.9808 13.7283C23.7427 13.7283 23.5487 13.5343 23.5487 13.2962C23.5487 13.0582 23.7427 12.8642 23.9808 12.8642ZM23.9808 14.7005L31.3261 20.2095H16.6355L23.9808 14.7005ZM36.9432 30.1473C36.9432 30.862 36.3616 31.4435 35.6469 31.4435H12.3147C11.6 31.4435 11.0185 30.862 11.0185 30.1473V22.3699C11.0185 21.6552 11.6 21.0737 12.3147 21.0737H35.6469C36.3616 21.0737 36.9432 21.6552 36.9432 22.3699V30.1473Z" fill="white"/>
</svg>
