<svg width="24" height="22" viewBox="0 0 24 22" fill="none" xmlns="http://www.w3.org/2000/svg">
<path d="M14.6395 13.623C14.5614 13.5449 14.4374 13.5449 14.3639 13.623L10.86 17.1269C10.7085 17.2784 10.4605 17.2784 10.3044 17.1269L9.54667 16.3692C9.4686 16.2911 9.34461 16.2911 9.27113 16.3692L8.92672 16.7136C8.84865 16.7916 8.84865 16.9156 8.92672 16.9891L10.4467 18.5091C10.5248 18.5872 10.6488 18.5872 10.7223 18.5091L14.9839 14.2475C15.0573 14.1695 15.0573 14.0455 14.9839 13.9674L14.6395 13.623Z" fill="white"/>
<path d="M22.727 10.5784H21.3263L13.2256 2.09197C13.3542 1.72918 13.3818 1.31588 13.1292 0.856657C12.8674 0.379065 12.3852 0.0300554 11.8434 0.00250198C10.9387 -0.0480126 10.1856 0.672968 10.1856 1.56845C10.1856 1.75214 10.2223 1.92665 10.282 2.09197L2.1859 10.5784H0.785272C0.353602 10.5784 0 10.9274 0 11.3637V20.7686C0 21.2002 0.34901 21.5538 0.785272 21.5538H22.7315C23.1632 21.5538 23.5168 21.2048 23.5168 20.7686V11.3637C23.5122 10.932 23.1632 10.5784 22.727 10.5784ZM11.7561 0.783181C12.1878 0.783181 12.5414 1.13678 12.5414 1.56845C12.5414 2.00012 12.1878 2.35372 11.7561 2.35372C11.3244 2.35372 10.9708 2.00012 10.9708 1.56845C10.9708 1.13219 11.3244 0.783181 11.7561 0.783181ZM15.9534 14.3854L10.856 19.4782C10.778 19.5562 10.6815 19.593 10.5805 19.593C10.4795 19.593 10.3784 19.5562 10.305 19.4782L7.95374 17.1269C7.8022 16.9754 7.8022 16.7274 7.95374 16.5713L9.12936 15.3957C9.2809 15.2441 9.52888 15.2441 9.68502 15.3957L10.4427 16.1534C10.5208 16.2315 10.6448 16.2315 10.7183 16.1534L14.2221 12.6495C14.3737 12.498 14.6217 12.498 14.7778 12.6495L15.9534 13.8251C16.105 13.9813 16.105 14.2292 15.9534 14.3854ZM3.26508 10.5784L10.7366 2.74866C11.0122 2.98286 11.3612 3.1344 11.7515 3.1344C12.1419 3.1344 12.4909 2.98745 12.7664 2.74866L20.238 10.5784H3.26508Z" fill="white"/>
</svg>
