<svg width="23" height="15" viewBox="0 0 23 15" fill="none" xmlns="http://www.w3.org/2000/svg">
<path d="M21.6547 5.49688C22.1143 5.48269 22.4796 5.10601 22.4796 4.64619V1.39018C22.4796 0.920161 22.0985 0.539062 21.6284 0.539062H1.77494C1.30488 0.539105 0.923828 0.920161 0.923828 1.39018V4.64404C0.923828 5.11405 1.30488 5.49515 1.77494 5.49515C2.83665 5.49515 3.70039 6.3589 3.70039 7.4206C3.70039 8.4823 2.83665 9.34605 1.77494 9.34605C1.30488 9.34605 0.923828 9.72715 0.923828 10.1972V13.451C0.923828 13.921 1.30488 14.3021 1.77494 14.3021H21.6285C22.0985 14.3021 22.4796 13.9211 22.4796 13.451V10.195C22.4796 9.73519 22.1144 9.35851 21.6548 9.34432C20.6091 9.31203 19.7901 8.46706 19.7901 7.4206C19.7901 6.37414 20.6091 5.52917 21.6547 5.49688ZM7.77556 12.5999H2.62601V10.9474C4.2171 10.5635 5.40258 9.12792 5.40258 7.4206C5.40258 5.71332 4.2171 4.27768 2.62601 3.89371V2.24129H7.77556V12.5999ZM19.1135 9.94771C19.5765 10.4241 20.1499 10.7582 20.7774 10.9252V12.5999H9.47775V2.24129H20.7774V3.91599C20.1499 4.08296 19.5765 4.41711 19.1135 4.89345C18.4521 5.57397 18.0879 6.47148 18.0879 7.42064C18.0878 8.36973 18.4521 9.26719 19.1135 9.94771Z" fill="white"/>
<path d="M16.5949 5.00781H11.2886C10.8186 5.00781 10.4375 5.38887 10.4375 5.85893C10.4375 6.32898 10.8186 6.71004 11.2886 6.71004H16.5949C17.0649 6.71004 17.446 6.32898 17.446 5.85893C17.446 5.38887 17.0649 5.00781 16.5949 5.00781Z" fill="white"/>
<path d="M16.5949 8.13086H11.2886C10.8186 8.13086 10.4375 8.51192 10.4375 8.98197C10.4375 9.45203 10.8186 9.83309 11.2886 9.83309H16.5949C17.0649 9.83309 17.446 9.45203 17.446 8.98197C17.446 8.51192 17.0649 8.13086 16.5949 8.13086Z" fill="white"/>
</svg>
