<svg width="39" height="39" viewBox="0 0 39 39" fill="none" xmlns="http://www.w3.org/2000/svg">
<circle cx="19.5" cy="19.5" r="19.5" fill="#E8EAFF"/>
<path d="M26.6909 14.1529L24.6466 12.1087C24.2255 11.5815 22.9366 11.138 21.9659 12.1087L12.6157 21.4267C12.4743 21.5682 12.4068 21.7514 12.4164 21.9282L11.5454 26.4859C11.4104 27.0066 11.9279 27.3409 12.2815 27.2895L17.0064 26.3509C17.1414 26.3509 17.241 26.2834 17.3407 26.1838L26.6909 16.8689C27.4301 16.1297 27.4301 14.8922 26.6909 14.1529ZM22.9045 13.0151C23.107 12.7804 23.5088 12.7804 23.7434 13.0151L24.2995 13.5615L14.9878 22.8731L14.0204 21.896L22.9045 13.0151ZM13.49 23.2363L15.56 25.3063L12.9854 25.8142L13.49 23.2363ZM25.7877 15.895L16.8907 24.792L15.9232 23.8149L25.2445 14.4936L25.7845 15.024C26.0802 15.339 25.9419 15.7375 25.7877 15.895Z" fill="#6C7BFF"/>
</svg>
