<svg width="17" height="16" viewBox="0 0 17 16" fill="none" xmlns="http://www.w3.org/2000/svg">
<path opacity="0.7" d="M5.95455 3.58532H7.63409V11.2732C7.63409 11.3732 7.71591 11.455 7.81591 11.455H9.17955C9.27955 11.455 9.36136 11.3732 9.36136 11.2732V3.58532H11.0455C11.1977 3.58532 11.2818 3.41033 11.1886 3.29216L8.64318 0.0697542C8.62617 0.0480251 8.60444 0.0304518 8.57964 0.0183663C8.55483 0.00628079 8.5276 0 8.5 0C8.4724 0 8.44517 0.00628079 8.42036 0.0183663C8.39556 0.0304518 8.37383 0.0480251 8.35682 0.0697542L5.81136 3.28989C5.71818 3.41033 5.80227 3.58532 5.95455 3.58532ZM16.8182 10.5914H15.4545C15.3545 10.5914 15.2727 10.6733 15.2727 10.7732V14.2729H1.72727V10.7732C1.72727 10.6733 1.64545 10.5914 1.54545 10.5914H0.181818C0.0818182 10.5914 0 10.6733 0 10.7732V15.2728C0 15.675 0.325 16 0.727273 16H16.2727C16.675 16 17 15.675 17 15.2728V10.7732C17 10.6733 16.9182 10.5914 16.8182 10.5914Z" fill="#707070"/>
</svg>
