<svg width="20" height="20" viewBox="0 0 20 20" fill="none" xmlns="http://www.w3.org/2000/svg">
<path d="M5.83464 3.33268C5.83464 2.89065 6.01023 2.46673 6.32279 2.15417C6.63535 1.84161 7.05927 1.66602 7.5013 1.66602H12.5013C12.9433 1.66602 13.3673 1.84161 13.6798 2.15417C13.9924 2.46673 14.168 2.89065 14.168 3.33268V4.99935H17.5013C17.7223 4.99935 17.9343 5.08715 18.0906 5.24343C18.2468 5.39971 18.3346 5.61167 18.3346 5.83268C18.3346 6.0537 18.2468 6.26566 18.0906 6.42194C17.9343 6.57822 17.7223 6.66602 17.5013 6.66602H16.6105L15.888 16.7843C15.858 17.2048 15.6699 17.5984 15.3614 17.8857C15.0529 18.173 14.647 18.3327 14.2255 18.3327H5.7763C5.35475 18.3327 4.94886 18.173 4.64037 17.8857C4.33189 17.5984 4.14373 17.2048 4.1138 16.7843L3.39297 6.66602H2.5013C2.28029 6.66602 2.06833 6.57822 1.91205 6.42194C1.75577 6.26566 1.66797 6.0537 1.66797 5.83268C1.66797 5.61167 1.75577 5.39971 1.91205 5.24343C2.06833 5.08715 2.28029 4.99935 2.5013 4.99935H5.83464V3.33268ZM7.5013 4.99935H12.5013V3.33268H7.5013V4.99935ZM5.06297 6.66602L5.77714 16.666H14.2263L14.9405 6.66602H5.06297ZM8.33464 8.33268C8.55565 8.33268 8.76761 8.42048 8.92389 8.57676C9.08017 8.73304 9.16797 8.945 9.16797 9.16602V14.166C9.16797 14.387 9.08017 14.599 8.92389 14.7553C8.76761 14.9116 8.55565 14.9993 8.33464 14.9993C8.11362 14.9993 7.90166 14.9116 7.74538 14.7553C7.5891 14.599 7.5013 14.387 7.5013 14.166V9.16602C7.5013 8.945 7.5891 8.73304 7.74538 8.57676C7.90166 8.42048 8.11362 8.33268 8.33464 8.33268ZM11.668 8.33268C11.889 8.33268 12.1009 8.42048 12.2572 8.57676C12.4135 8.73304 12.5013 8.945 12.5013 9.16602V14.166C12.5013 14.387 12.4135 14.599 12.2572 14.7553C12.1009 14.9116 11.889 14.9993 11.668 14.9993C11.447 14.9993 11.235 14.9116 11.0787 14.7553C10.9224 14.599 10.8346 14.387 10.8346 14.166V9.16602C10.8346 8.945 10.9224 8.73304 11.0787 8.57676C11.235 8.42048 11.447 8.33268 11.668 8.33268Z" fill="#7B7F90"/>
</svg>
