<svg width="16" height="16" viewBox="0 0 16 16" fill="none" xmlns="http://www.w3.org/2000/svg">
<path d="M3.63672 8.72727V11.6364C3.63672 12.038 3.96234 12.3636 4.36399 12.3636H7.27308C7.46596 12.3636 7.65093 12.287 7.78731 12.1506L15.7873 4.15059C16.0713 3.86657 16.0713 3.40611 15.7873 3.12208L12.8782 0.212994C12.7419 0.0766546 12.5569 0 12.364 0C12.1711 0 11.9861 0.0766546 11.8498 0.213042L3.84976 8.21304C3.71332 8.34938 3.63672 8.5344 3.63672 8.72727ZM5.09126 9.02851L12.364 1.75578L14.2446 3.63636L6.97185 10.9091H5.09126V9.02851Z" fill="#7B7F90"/>
<path d="M15.2727 7.27278C14.8711 7.27278 14.5455 7.5984 14.5455 8.00005V14.5455H1.45455V1.45455H8C8.40165 1.45455 8.72727 1.12892 8.72727 0.727273C8.72727 0.325624 8.40165 0 8 0H0.727273C0.325624 0 0 0.325624 0 0.727273V15.2727C0 15.6744 0.325624 16 0.727273 16H15.2727C15.6744 16 16 15.6744 16 15.2727V8.00005C16 7.59835 15.6744 7.27278 15.2727 7.27278Z" fill="#7B7F90"/>
</svg>
